G04*
G04 #@! TF.GenerationSoftware,Altium Limited,Altium Designer,21.7.2 (23)*
G04*
G04 Layer_Color=32768*
%FSLAX25Y25*%
%MOIN*%
G70*
G04*
G04 #@! TF.SameCoordinates,9BAFE8C0-FE94-48CB-A9BC-8C9B0489C5DE*
G04*
G04*
G04 #@! TF.FilePolarity,Positive*
G04*
G01*
G75*
%ADD12C,0.00394*%
%ADD132C,0.00197*%
D12*
X54626Y225590D02*
X109744D01*
X54626D02*
Y284252D01*
X109744D01*
Y225590D02*
Y284252D01*
X293209Y310413D02*
X328445D01*
X328445Y337579D01*
X293209D02*
X328445D01*
X293209Y310413D02*
Y337579D01*
X343770Y384128D02*
X386449Y323175D01*
X304102Y356352D02*
X343770Y384128D01*
X304102Y356352D02*
X346781Y295400D01*
X386449Y323175D01*
X351537Y327369D02*
X376681Y226519D01*
X351537Y327369D02*
X395086Y338227D01*
X420230Y237377D01*
X376681Y226519D02*
X420230Y237377D01*
X293209Y290216D02*
X328445D01*
Y317382D01*
X293209D02*
X328445D01*
X293209Y290216D02*
Y317382D01*
X241102Y349291D02*
X300157D01*
Y290236D02*
Y349291D01*
X241102Y290236D02*
X300157D01*
X241102D02*
X241102Y349291D01*
X187205Y269094D02*
X239567D01*
X187205D02*
Y317520D01*
X239567D01*
Y269094D02*
Y317520D01*
X158580Y129661D02*
X215881Y143948D01*
X230167Y86647D01*
X172866Y72360D02*
X230167Y86647D01*
X158580Y129661D02*
X172866Y72360D01*
D132*
X95079Y294882D02*
G03*
X95079Y294882I-12795J0D01*
G01*
X149495Y97159D02*
G03*
X149495Y97159I-37894J0D01*
G01*
X64468Y213484D02*
Y223130D01*
X74311D01*
Y213484D02*
Y223130D01*
X64468Y213484D02*
X74311D01*
X178134Y373803D02*
Y401000D01*
X205331D01*
Y373803D02*
Y401000D01*
X178134Y373803D02*
X205331D01*
X157185Y165847D02*
X157185Y139272D01*
X195177D01*
X195177Y165847D02*
X195177Y139272D01*
X157185Y165847D02*
X195177D01*
X212205Y331693D02*
Y342323D01*
Y331693D02*
X225590Y331693D01*
Y342323D01*
X212205Y342323D02*
X225590Y342323D01*
X219568Y339212D02*
X231260Y350905D01*
X209685Y349095D02*
X219568Y339212D01*
X209685Y349095D02*
X221377Y360788D01*
X231260Y350905D01*
X85220Y374197D02*
X112417D01*
Y401394D01*
X85220D02*
X112417D01*
X85220Y374197D02*
Y401394D01*
X143882Y374197D02*
X171079D01*
Y401394D01*
X143882D02*
X171079D01*
X143882Y374197D02*
Y401394D01*
X117635Y374197D02*
X144832D01*
Y401394D01*
X117635D02*
X144832D01*
X117635Y374197D02*
Y401394D01*
X283229Y346316D02*
Y359308D01*
X262757Y359308D02*
X283229Y359308D01*
X262757Y346316D02*
Y359308D01*
Y346316D02*
X283229Y346316D01*
X168621Y363150D02*
X178504Y353267D01*
X156929Y351457D02*
X168621Y363150D01*
X156929Y351457D02*
X166812Y341575D01*
X178504Y353267D01*
X185518Y362559D02*
X195401Y352676D01*
X173825Y350867D02*
X185518Y362559D01*
X173825Y350867D02*
X183708Y340984D01*
X195401Y352676D01*
X193051Y331988D02*
Y342618D01*
Y331988D02*
X206437Y331988D01*
Y342618D01*
X193051Y342618D02*
X206437Y342618D01*
X174088Y342618D02*
X187474Y342618D01*
Y331988D02*
Y342618D01*
X174088Y331988D02*
X187474Y331988D01*
X174088Y331988D02*
Y342618D01*
X156693Y342323D02*
X170079Y342323D01*
Y331693D02*
Y342323D01*
X156693Y331693D02*
X170079Y331693D01*
X156693Y331693D02*
Y342323D01*
X111811Y362894D02*
X128347D01*
X111811D02*
Y376476D01*
X128347D01*
Y362894D02*
Y376476D01*
X86221Y308760D02*
Y325098D01*
X72835Y308760D02*
X86221D01*
X72835D02*
Y325098D01*
X86221D01*
X137402Y214961D02*
Y239567D01*
X106299Y214961D02*
X137402D01*
X106299D02*
Y239567D01*
X137402D01*
X246260Y348327D02*
Y362303D01*
Y348327D02*
X262795D01*
Y362303D01*
X246260D02*
X262795D01*
X169291Y364862D02*
X185827D01*
X169291D02*
Y378445D01*
X185827D01*
Y364862D02*
Y378445D01*
X231988Y189469D02*
Y203051D01*
X215453D02*
X231988D01*
X215453Y189469D02*
Y203051D01*
Y189469D02*
X231988D01*
X124311Y266831D02*
X165453D01*
X124311D02*
Y307972D01*
X165453D01*
Y266831D02*
Y307972D01*
X94488Y178642D02*
Y209350D01*
X55315D02*
X94488D01*
X55315Y178642D02*
Y209350D01*
Y178642D02*
X94488D01*
X96555Y155610D02*
Y182185D01*
X58563D02*
X96555D01*
X58563Y155610D02*
Y182185D01*
Y155610D02*
X96555D01*
X204481Y362559D02*
X214364Y352676D01*
X192789Y350867D02*
X204481Y362559D01*
X192789Y350867D02*
X202672Y340984D01*
X214364Y352676D01*
X100394Y161122D02*
X129724D01*
Y139469D02*
Y161122D01*
X100394Y139469D02*
X129724D01*
X100394D02*
Y161122D01*
X286143Y352814D02*
X315316D01*
X286143D02*
X286143Y365806D01*
X315316D01*
X315316Y352814D02*
X315316Y365806D01*
M02*
