G04*
G04 #@! TF.GenerationSoftware,Altium Limited,Altium Designer,21.7.2 (23)*
G04*
G04 Layer_Color=65535*
%FSLAX25Y25*%
%MOIN*%
G70*
G04*
G04 #@! TF.SameCoordinates,9BAFE8C0-FE94-48CB-A9BC-8C9B0489C5DE*
G04*
G04*
G04 #@! TF.FilePolarity,Positive*
G04*
G01*
G75*
%ADD10C,0.00500*%
%ADD11C,0.00787*%
%ADD12C,0.00394*%
%ADD13C,0.01575*%
%ADD14C,0.01000*%
%ADD15C,0.01968*%
%ADD16C,0.01181*%
%ADD17C,0.02362*%
%ADD18C,0.01378*%
D10*
X179811Y383983D02*
G03*
X196973Y376162I11921J3418D01*
G01*
Y398641D02*
G03*
X179811Y390820I-5241J-11240D01*
G01*
X104060Y399035D02*
G03*
X86898Y391214I-5241J-11240D01*
G01*
Y384377D02*
G03*
X104060Y376556I11921J3418D01*
G01*
X162721Y399035D02*
G03*
X145559Y391214I-5241J-11240D01*
G01*
Y384377D02*
G03*
X162721Y376556I11921J3418D01*
G01*
X136475Y399035D02*
G03*
X119312Y391214I-5241J-11240D01*
G01*
Y384377D02*
G03*
X136475Y376556I11921J3418D01*
G01*
X88732Y227295D02*
X94732D01*
X88732Y223295D02*
X94732D01*
X197014Y398622D02*
X197559D01*
X204134Y381575D02*
Y393228D01*
X197014Y376181D02*
X197559D01*
X58661Y394488D02*
X58661Y383661D01*
X58661Y394488D02*
X83858Y394488D01*
X83858Y383661D01*
X58661D02*
X83858D01*
X104101Y376575D02*
X104646D01*
X111221Y381968D02*
Y393622D01*
X104101Y399016D02*
X104646D01*
X265105Y356033D02*
X274105Y356033D01*
X265105Y361544D02*
X274105D01*
X121260Y352756D02*
X133071Y352756D01*
X121260Y352756D02*
Y359055D01*
X133071Y359055D01*
X133071Y352756D02*
X133071Y359055D01*
X157480Y352756D02*
Y359055D01*
X145669Y359055D02*
X157480Y359055D01*
X145669Y359055D02*
X145669Y352756D01*
X157480D01*
X102190Y363518D02*
X108554Y357154D01*
X98293Y359621D02*
X104657Y353257D01*
X150627Y374571D02*
X159627Y374571D01*
X150627Y369059D02*
X159627D01*
X162762Y376575D02*
X163307D01*
X169882Y381968D02*
Y393622D01*
X162762Y399016D02*
X163307D01*
X136516Y376575D02*
X137060D01*
X143635Y381968D02*
Y393622D01*
X136516Y399016D02*
X137060D01*
X160236Y314961D02*
X187795D01*
X160236Y332283D02*
X187795D01*
X58661Y362795D02*
X83858D01*
X83858Y373622D02*
X83858Y362795D01*
X58661Y373622D02*
X83858Y373622D01*
X58661Y373622D02*
X58661Y362795D01*
X112205Y377953D02*
X112205Y386953D01*
X117717Y377953D02*
Y386953D01*
X188976Y359504D02*
Y368504D01*
X194488Y359504D02*
Y368504D01*
X240402Y358828D02*
X242454Y353190D01*
X244160Y360196D02*
X246213Y354558D01*
X120866Y352756D02*
X120866Y359055D01*
X109055Y359055D02*
X120866Y359055D01*
X109055Y352756D02*
Y359055D01*
Y352756D02*
X120866D01*
X133465D02*
X145276Y352756D01*
X133465Y359055D02*
X133465Y352756D01*
X133465Y359055D02*
X145276Y359055D01*
X145276Y352756D01*
X139354Y369059D02*
X148354D01*
X139354Y374571D02*
X148354Y374571D01*
X197244Y363386D02*
X206244Y363386D01*
X197244Y368898D02*
X206244Y368898D01*
X178427Y354732D02*
X182669Y358975D01*
X175598Y357561D02*
X179841Y361803D01*
X158760Y207382D02*
X180413D01*
Y218209D01*
X158760D02*
X180413D01*
X158760Y207382D02*
Y218209D01*
X159547Y167618D02*
Y178445D01*
X184744D01*
Y167618D02*
Y178445D01*
X159547Y167618D02*
X184744D01*
X159547Y187500D02*
Y198327D01*
X184744D01*
Y187500D02*
Y198327D01*
X159547Y187500D02*
X184744D01*
X202429Y179543D02*
Y185543D01*
X206429Y179543D02*
Y185543D01*
X212697Y179724D02*
Y188724D01*
X207185D02*
X207185Y179724D01*
X202854Y195079D02*
Y206890D01*
X209154D01*
Y195079D02*
Y206890D01*
X202854Y195079D02*
X209154D01*
X216240Y174661D02*
Y183661D01*
X221752Y183661D02*
X221752Y174661D01*
X231594Y183661D02*
X231594Y174661D01*
X226083D02*
Y183661D01*
X240650Y181299D02*
Y190299D01*
X235138D02*
X235138Y181299D01*
X202854Y221063D02*
X209154D01*
X202854Y209252D02*
Y221063D01*
Y209252D02*
X209154D01*
Y221063D01*
X240650Y192378D02*
Y201378D01*
X235138Y192378D02*
Y201378D01*
X218602Y206102D02*
X227602D01*
X218602Y211614D02*
X227602D01*
X245012Y182236D02*
Y188236D01*
X241012Y182236D02*
Y188236D01*
X95819Y291701D02*
X101819D01*
X95819Y295701D02*
X101819D01*
X58323Y285039D02*
X67323D01*
X58323Y290551D02*
X67323D01*
X105347Y135091D02*
Y141091D01*
X101347Y135091D02*
Y141091D01*
X107646Y254972D02*
Y260972D01*
X111646Y254972D02*
Y260972D01*
X109843Y241929D02*
Y252756D01*
X135039D01*
Y241929D02*
Y252756D01*
X109843Y241929D02*
X135039D01*
X265748Y398819D02*
X293307D01*
X265748Y381496D02*
X293307D01*
X149606Y329134D02*
Y339961D01*
X124409Y329134D02*
X149606D01*
X124409D02*
Y339961D01*
X149606D01*
X58323Y297244D02*
X67323D01*
X58323Y291732D02*
X67323D01*
X95819Y291764D02*
X101819D01*
X95819Y287764D02*
X101819D01*
X119882Y275197D02*
Y300394D01*
X109055D02*
X119882D01*
X109055Y275197D02*
Y300394D01*
Y275197D02*
X119882D01*
X145701Y152905D02*
Y158905D01*
X141701Y152905D02*
Y158905D01*
X155512Y239173D02*
X166339D01*
X155512D02*
Y260827D01*
X166339D01*
Y239173D02*
Y260827D01*
X146465Y157167D02*
X150707Y161409D01*
X149293Y154339D02*
X153535Y158581D01*
X100000Y208268D02*
Y217268D01*
X94488Y208268D02*
Y217268D01*
X135925Y147747D02*
X135925Y138747D01*
X130413D02*
Y147747D01*
X74016Y303992D02*
Y312992D01*
X68504Y303992D02*
Y312992D01*
X88976Y312992D02*
Y321992D01*
X94488Y312992D02*
Y321992D01*
X65952Y223425D02*
X74952D01*
X65952Y228937D02*
X74952D01*
X61516Y222269D02*
Y228269D01*
X57516Y222269D02*
Y228269D01*
X61524Y215321D02*
Y221321D01*
X57524Y215321D02*
Y221321D01*
X88189Y208268D02*
Y217268D01*
X82677Y208268D02*
Y217268D01*
X94095Y208268D02*
Y217268D01*
X88583Y208268D02*
Y217268D01*
X58220Y208236D02*
X64220D01*
X58220Y212236D02*
X64220D01*
X177165Y283520D02*
Y292520D01*
X171653Y283520D02*
Y292520D01*
X182677Y283520D02*
Y292520D01*
X177165Y283520D02*
Y292520D01*
X69753Y113099D02*
X76117Y119463D01*
X65855Y116997D02*
X72219Y123361D01*
X206661Y334008D02*
Y340008D01*
X210661Y334008D02*
Y340008D01*
X183406Y280617D02*
Y286617D01*
X187406Y280617D02*
Y286617D01*
X183406Y271792D02*
Y277792D01*
X187406Y271792D02*
Y277792D01*
X95819Y287827D02*
X101819D01*
X95819Y283827D02*
X101819D01*
X130413Y150547D02*
Y159547D01*
X135925Y150547D02*
Y159547D01*
X73690Y109162D02*
X80054Y115526D01*
X69792Y113060D02*
X76156Y119424D01*
X137764Y152905D02*
Y158905D01*
X141764Y152905D02*
Y158905D01*
X68209Y146752D02*
Y155752D01*
X62697D02*
X62697Y146752D01*
X67059Y136075D02*
Y142075D01*
X63059Y136075D02*
Y142075D01*
X67059Y128201D02*
Y134201D01*
X63059Y128201D02*
Y134201D01*
D11*
X201969Y371654D02*
G03*
X201969Y371654I-394J0D01*
G01*
X109055Y372047D02*
G03*
X109055Y372047I-394J0D01*
G01*
X167717Y372047D02*
G03*
X167717Y372047I-394J0D01*
G01*
X141470Y372047D02*
G03*
X141470Y372047I-394J0D01*
G01*
X93110Y294882D02*
G03*
X93110Y294882I-10827J0D01*
G01*
X147527Y97159D02*
G03*
X147527Y97159I-35925J0D01*
G01*
X65256Y217323D02*
Y219291D01*
X73524D01*
Y217323D02*
Y219291D01*
X65256Y217323D02*
X73524D01*
X64862Y214075D02*
Y215945D01*
X160531Y140945D02*
X191831Y140945D01*
X158169Y164173D02*
X191831D01*
X213189Y341634D02*
X217126D01*
X218504Y333071D02*
Y340945D01*
Y333071D02*
X219291D01*
Y340945D01*
X218504D02*
X219291D01*
X223674Y345128D02*
X225344Y346798D01*
X215601Y353202D02*
X223674Y345128D01*
X215601Y353202D02*
X217271Y354872D01*
X225344Y346798D01*
X226458Y347634D02*
X229799Y350974D01*
X267776Y355961D02*
X278209D01*
X267776Y349662D02*
X282245D01*
X173702Y349996D02*
X177043Y353337D01*
X164515Y357234D02*
X172588Y349161D01*
X162845Y355564D02*
X164515Y357234D01*
X162845Y355564D02*
X170918Y347490D01*
X172588Y349161D01*
X190598Y349405D02*
X193939Y352746D01*
X181412Y356643D02*
X189485Y348570D01*
X179741Y354973D02*
X181412Y356643D01*
X179741Y354973D02*
X187814Y346900D01*
X189485Y348570D01*
X194035Y341929D02*
X197972D01*
X199350Y333366D02*
Y341240D01*
Y333366D02*
X200138D01*
Y341240D01*
X199350D02*
X200138D01*
X180387D02*
X181174D01*
Y333366D02*
Y341240D01*
X180387Y333366D02*
X181174D01*
X180387D02*
Y341240D01*
X175072Y341929D02*
X179009D01*
X162992Y340945D02*
X163779D01*
Y333071D02*
Y340945D01*
X162992Y333071D02*
X163779D01*
X162992D02*
Y340945D01*
X157677Y341634D02*
X161614D01*
X118898Y363976D02*
X121260D01*
X118898D02*
Y375394D01*
X121260D01*
Y363976D02*
Y375394D01*
X122638Y363583D02*
X127362D01*
X85236Y315256D02*
Y318602D01*
X73819Y315256D02*
X85236D01*
X73819D02*
Y318602D01*
X85236D01*
X85728Y319980D02*
Y324114D01*
X107283Y238583D02*
X126772D01*
X107283Y215945D02*
Y238583D01*
Y215945D02*
X136417D01*
Y225197D01*
X247244Y361221D02*
X251969D01*
X253346Y349606D02*
Y361024D01*
Y349606D02*
X255709D01*
Y361024D01*
X253346D02*
X255709D01*
X176378Y365945D02*
X178740D01*
X176378D02*
Y377362D01*
X178740D01*
Y365945D02*
Y377362D01*
X180118Y365551D02*
X184843D01*
X226279Y190157D02*
X231004D01*
X224902Y190551D02*
Y201969D01*
X222539D02*
X224902D01*
X222539Y190551D02*
Y201969D01*
Y190551D02*
X224902D01*
X132480Y275000D02*
X157283D01*
X132480D02*
Y299803D01*
X157283D01*
Y275000D02*
Y299803D01*
X61909Y206988D02*
X81398D01*
X61909Y181004D02*
X92520D01*
X61910Y180512D02*
X93209D01*
X61910Y157283D02*
X95571D01*
X209562Y349405D02*
X212902Y352746D01*
X200375Y356643D02*
X208448Y348570D01*
X198705Y354973D02*
X200375Y356643D01*
X198705Y354973D02*
X206778Y346900D01*
X208448Y348570D01*
X101378Y160453D02*
X107382D01*
X300729Y354408D02*
Y364212D01*
X198622Y273031D02*
X228150D01*
X198622Y313583D02*
X228150D01*
X142847Y251017D02*
X142322Y251542D01*
X141273D01*
X140748Y251017D01*
Y248919D01*
X141273Y248394D01*
X142322D01*
X142847Y248919D01*
Y249968D01*
X141798D01*
X143897Y248394D02*
Y251542D01*
X145996Y248394D01*
Y251542D01*
X147045D02*
Y248394D01*
X148619D01*
X149144Y248919D01*
Y251017D01*
X148619Y251542D01*
X147045D01*
X81103Y252396D02*
X84251D01*
Y254495D01*
Y257644D02*
Y255544D01*
X82152Y257644D01*
X81628D01*
X81103Y257119D01*
Y256069D01*
X81628Y255544D01*
X97212Y235892D02*
X96687Y236417D01*
X95638D01*
X95113Y235892D01*
Y233793D01*
X95638Y233268D01*
X96687D01*
X97212Y233793D01*
X98261Y235892D02*
X98786Y236417D01*
X99836D01*
X100361Y235892D01*
Y235367D01*
X99836Y234842D01*
X99311D01*
X99836D01*
X100361Y234318D01*
Y233793D01*
X99836Y233268D01*
X98786D01*
X98261Y233793D01*
X103509Y236417D02*
X101410D01*
Y234842D01*
X102460Y235367D01*
X102984D01*
X103509Y234842D01*
Y233793D01*
X102984Y233268D01*
X101935D01*
X101410Y233793D01*
X66634Y232383D02*
Y233433D01*
Y232908D01*
X69783D01*
Y232383D01*
Y233433D01*
X67159Y237106D02*
X66634Y236581D01*
Y235532D01*
X67159Y235007D01*
X69258D01*
X69783Y235532D01*
Y236581D01*
X69258Y237106D01*
X67159Y238156D02*
X66634Y238680D01*
Y239730D01*
X67159Y240255D01*
X67684D01*
X68209Y239730D01*
Y239205D01*
Y239730D01*
X68733Y240255D01*
X69258D01*
X69783Y239730D01*
Y238680D01*
X69258Y238156D01*
X87534Y362205D02*
X87009Y362730D01*
Y363779D01*
X87534Y364304D01*
X88058D01*
X88583Y363779D01*
Y363254D01*
Y363779D01*
X89108Y364304D01*
X89633D01*
X90158Y363779D01*
Y362730D01*
X89633Y362205D01*
X90158Y365353D02*
X89633D01*
Y365878D01*
X90158D01*
Y365353D01*
X87534Y367977D02*
X87009Y368502D01*
Y369551D01*
X87534Y370076D01*
X88058D01*
X88583Y369551D01*
Y369027D01*
Y369551D01*
X89108Y370076D01*
X89633D01*
X90158Y369551D01*
Y368502D01*
X89633Y367977D01*
X87009Y371126D02*
X89108D01*
X90158Y372175D01*
X89108Y373225D01*
X87009D01*
X104331Y364829D02*
X101182D01*
X104331Y366928D01*
X101182D01*
Y367977D02*
Y370076D01*
Y369027D01*
X104331D01*
X101707Y373225D02*
X101182Y372700D01*
Y371651D01*
X101707Y371126D01*
X103806D01*
X104331Y371651D01*
Y372700D01*
X103806Y373225D01*
X99606Y364828D02*
X96458D01*
X99606Y366928D01*
X96458D01*
Y367977D02*
Y370076D01*
Y369027D01*
X99606D01*
X96983Y373225D02*
X96458Y372700D01*
Y371651D01*
X96983Y371126D01*
X99081D01*
X99606Y371651D01*
Y372700D01*
X99081Y373225D01*
X92258Y362205D02*
X91733Y362730D01*
Y363779D01*
X92258Y364304D01*
X92783D01*
X93308Y363779D01*
Y363254D01*
Y363779D01*
X93832Y364304D01*
X94357D01*
X94882Y363779D01*
Y362730D01*
X94357Y362205D01*
X94882Y365353D02*
X94357D01*
Y365878D01*
X94882D01*
Y365353D01*
X92258Y367977D02*
X91733Y368502D01*
Y369551D01*
X92258Y370076D01*
X92783D01*
X93308Y369551D01*
Y369027D01*
Y369551D01*
X93832Y370076D01*
X94357D01*
X94882Y369551D01*
Y368502D01*
X94357Y367977D01*
X91733Y371126D02*
X93832D01*
X94882Y372175D01*
X93832Y373225D01*
X91733D01*
X150053Y170406D02*
X149529Y169881D01*
Y168832D01*
X150053Y168307D01*
X152152D01*
X152677Y168832D01*
Y169881D01*
X152152Y170406D01*
X151103D01*
Y169357D01*
X152677Y171456D02*
X149529D01*
X152677Y173555D01*
X149529D01*
Y174604D02*
X152677D01*
Y176179D01*
X152152Y176703D01*
X150053D01*
X149529Y176179D01*
Y174604D01*
X154597Y168307D02*
X154072Y168832D01*
Y169881D01*
X154597Y170406D01*
X155122D01*
X155647Y169881D01*
Y169357D01*
Y169881D01*
X156171Y170406D01*
X156696D01*
X157221Y169881D01*
Y168832D01*
X156696Y168307D01*
X157221Y171456D02*
X156696D01*
Y171980D01*
X157221D01*
Y171456D01*
X154597Y174080D02*
X154072Y174604D01*
Y175654D01*
X154597Y176179D01*
X155122D01*
X155647Y175654D01*
Y175129D01*
Y175654D01*
X156171Y176179D01*
X156696D01*
X157221Y175654D01*
Y174604D01*
X156696Y174080D01*
X154072Y177228D02*
X156171D01*
X157221Y178278D01*
X156171Y179327D01*
X154072D01*
X154597Y187992D02*
X154072Y188517D01*
Y189567D01*
X154597Y190091D01*
X155122D01*
X155647Y189567D01*
Y189042D01*
Y189567D01*
X156171Y190091D01*
X156696D01*
X157221Y189567D01*
Y188517D01*
X156696Y187992D01*
X157221Y191141D02*
X156696D01*
Y191665D01*
X157221D01*
Y191141D01*
X154597Y193765D02*
X154072Y194289D01*
Y195339D01*
X154597Y195864D01*
X155122D01*
X155647Y195339D01*
Y194814D01*
Y195339D01*
X156171Y195864D01*
X156696D01*
X157221Y195339D01*
Y194289D01*
X156696Y193765D01*
X154072Y196913D02*
X156171D01*
X157221Y197963D01*
X156171Y199012D01*
X154072D01*
X150053Y190091D02*
X149528Y189567D01*
Y188517D01*
X150053Y187992D01*
X152152D01*
X152677Y188517D01*
Y189567D01*
X152152Y190091D01*
X151103D01*
Y189042D01*
X152677Y191141D02*
X149528D01*
X152677Y193240D01*
X149528D01*
Y194289D02*
X152677D01*
Y195864D01*
X152152Y196388D01*
X150053D01*
X149528Y195864D01*
Y194289D01*
X150053Y209776D02*
X149529Y209251D01*
Y208202D01*
X150053Y207677D01*
X152152D01*
X152677Y208202D01*
Y209251D01*
X152152Y209776D01*
X151103D01*
Y208727D01*
X152677Y210826D02*
X149529D01*
X152677Y212925D01*
X149529D01*
Y213974D02*
X152677D01*
Y215549D01*
X152152Y216073D01*
X150053D01*
X149529Y215549D01*
Y213974D01*
X189764Y187992D02*
X186615D01*
Y189567D01*
X187140Y190091D01*
X188189D01*
X188714Y189567D01*
Y187992D01*
X186615Y191141D02*
X189764D01*
Y192715D01*
X189239Y193240D01*
X188714D01*
X188189Y192715D01*
Y191141D01*
Y192715D01*
X187665Y193240D01*
X187140D01*
X186615Y192715D01*
Y191141D01*
X187140Y194289D02*
X186615Y194814D01*
Y195864D01*
X187140Y196388D01*
X187665D01*
X188189Y195864D01*
Y195339D01*
Y195864D01*
X188714Y196388D01*
X189239D01*
X189764Y195864D01*
Y194814D01*
X189239Y194289D01*
X154597Y207677D02*
X154072Y208202D01*
Y209251D01*
X154597Y209776D01*
X155122D01*
X155647Y209251D01*
Y208727D01*
Y209251D01*
X156171Y209776D01*
X156696D01*
X157221Y209251D01*
Y208202D01*
X156696Y207677D01*
X157221Y210826D02*
X156696D01*
Y211351D01*
X157221D01*
Y210826D01*
X154597Y213450D02*
X154072Y213974D01*
Y215024D01*
X154597Y215549D01*
X155122D01*
X155647Y215024D01*
Y214499D01*
Y215024D01*
X156171Y215549D01*
X156696D01*
X157221Y215024D01*
Y213974D01*
X156696Y213450D01*
X154072Y216598D02*
X156171D01*
X157221Y217648D01*
X156171Y218697D01*
X154072D01*
X194491Y168307D02*
X191343D01*
Y169881D01*
X191867Y170406D01*
X192917D01*
X193442Y169881D01*
Y168307D01*
X191343Y171456D02*
X194491D01*
Y173030D01*
X193966Y173555D01*
X193442D01*
X192917Y173030D01*
Y171456D01*
Y173030D01*
X192392Y173555D01*
X191867D01*
X191343Y173030D01*
Y171456D01*
X191867Y174604D02*
X191343Y175129D01*
Y176179D01*
X191867Y176703D01*
X192392D01*
X192917Y176179D01*
X193442Y176703D01*
X193966D01*
X194491Y176179D01*
Y175129D01*
X193966Y174604D01*
X193442D01*
X192917Y175129D01*
X192392Y174604D01*
X191867D01*
X192917Y175129D02*
Y176179D01*
X194491Y187992D02*
X191343D01*
Y189567D01*
X191867Y190091D01*
X192917D01*
X193442Y189567D01*
Y187992D01*
X191343Y191141D02*
X194491D01*
Y192715D01*
X193966Y193240D01*
X193442D01*
X192917Y192715D01*
Y191141D01*
Y192715D01*
X192392Y193240D01*
X191867D01*
X191343Y192715D01*
Y191141D01*
X194491Y195864D02*
X191343D01*
X192917Y194289D01*
Y196388D01*
X189764Y168307D02*
X186615D01*
Y169881D01*
X187140Y170406D01*
X188189D01*
X188714Y169881D01*
Y168307D01*
X186615Y171456D02*
X189764D01*
Y173030D01*
X189239Y173555D01*
X188714D01*
X188189Y173030D01*
Y171456D01*
Y173030D01*
X187665Y173555D01*
X187140D01*
X186615Y173030D01*
Y171456D01*
Y176703D02*
Y174604D01*
X188189D01*
X187665Y175654D01*
Y176179D01*
X188189Y176703D01*
X189239D01*
X189764Y176179D01*
Y175129D01*
X189239Y174604D01*
X185138Y207874D02*
X181989D01*
Y209448D01*
X182514Y209973D01*
X183563D01*
X184088Y209448D01*
Y207874D01*
X185138Y211023D02*
X183039D01*
X181989Y212072D01*
X183039Y213122D01*
X185138D01*
X183563D01*
Y211023D01*
X185138Y214171D02*
Y215221D01*
Y214696D01*
X181989D01*
X182514Y214171D01*
X181989Y218894D02*
Y216795D01*
X183563D01*
X183039Y217845D01*
Y218369D01*
X183563Y218894D01*
X184613D01*
X185138Y218369D01*
Y217320D01*
X184613Y216795D01*
X100131Y305084D02*
X99606Y305609D01*
X98556D01*
X98032Y305084D01*
Y302985D01*
X98556Y302461D01*
X99606D01*
X100131Y302985D01*
X102754Y305609D02*
X101705D01*
X101180Y305084D01*
Y302985D01*
X101705Y302461D01*
X102754D01*
X103279Y302985D01*
Y305084D01*
X102754Y305609D01*
X104329Y302461D02*
Y305609D01*
X105378Y304560D01*
X106428Y305609D01*
Y302461D01*
X100131Y314533D02*
X99606Y315058D01*
X98556D01*
X98032Y314533D01*
Y314008D01*
X98556Y313484D01*
X99606D01*
X100131Y312959D01*
Y312434D01*
X99606Y311910D01*
X98556D01*
X98032Y312434D01*
X103279Y314533D02*
X102754Y315058D01*
X101705D01*
X101180Y314533D01*
Y312434D01*
X101705Y311910D01*
X102754D01*
X103279Y312434D01*
X104329Y315058D02*
Y311910D01*
X106428D01*
X100131Y309809D02*
X99606Y310334D01*
X98556D01*
X98032Y309809D01*
Y309284D01*
X98556Y308759D01*
X99606D01*
X100131Y308235D01*
Y307710D01*
X99606Y307185D01*
X98556D01*
X98032Y307710D01*
X101180Y310334D02*
Y307185D01*
X102754D01*
X103279Y307710D01*
Y309809D01*
X102754Y310334D01*
X101180D01*
X104329Y307185D02*
Y309284D01*
X105378Y310334D01*
X106428Y309284D01*
Y307185D01*
Y308759D01*
X104329D01*
X100131Y300360D02*
X99606Y300885D01*
X98556D01*
X98032Y300360D01*
Y298261D01*
X98556Y297736D01*
X99606D01*
X100131Y298261D01*
Y299310D01*
X99081D01*
X101180Y297736D02*
Y300885D01*
X103279Y297736D01*
Y300885D01*
X104329D02*
Y297736D01*
X105903D01*
X106428Y298261D01*
Y300360D01*
X105903Y300885D01*
X104329D01*
X110827Y311910D02*
Y315058D01*
X112401D01*
X112926Y314533D01*
Y313484D01*
X112401Y312959D01*
X110827D01*
X113975Y311910D02*
Y314008D01*
X115025Y315058D01*
X116074Y314008D01*
Y311910D01*
Y313484D01*
X113975D01*
X117124Y312434D02*
X117649Y311910D01*
X118698D01*
X119223Y312434D01*
Y314533D01*
X118698Y315058D01*
X117649D01*
X117124Y314533D01*
Y314008D01*
X117649Y313484D01*
X119223D01*
X108203Y307185D02*
Y310334D01*
X109777D01*
X110302Y309809D01*
Y308759D01*
X109777Y308235D01*
X108203D01*
X111352Y307185D02*
Y309284D01*
X112401Y310334D01*
X113451Y309284D01*
Y307185D01*
Y308759D01*
X111352D01*
X114500Y307185D02*
X115550D01*
X115025D01*
Y310334D01*
X114500Y309809D01*
X117124D02*
X117649Y310334D01*
X118698D01*
X119223Y309809D01*
Y307710D01*
X118698Y307185D01*
X117649D01*
X117124Y307710D01*
Y309809D01*
X109253Y302461D02*
Y305609D01*
X110827D01*
X111352Y305084D01*
Y304035D01*
X110827Y303510D01*
X109253D01*
X112401Y302461D02*
Y304560D01*
X113451Y305609D01*
X114500Y304560D01*
Y302461D01*
Y304035D01*
X112401D01*
X115550Y302461D02*
X116599D01*
X116074D01*
Y305609D01*
X115550Y305084D01*
X118174Y302461D02*
X119223D01*
X118698D01*
Y305609D01*
X118174Y305084D01*
X123620Y261286D02*
X123096Y260761D01*
Y259712D01*
X123620Y259187D01*
X125719D01*
X126244Y259712D01*
Y260761D01*
X125719Y261286D01*
X124670D01*
Y260237D01*
X126244Y262336D02*
X123096D01*
X126244Y264435D01*
X123096D01*
Y265484D02*
X126244D01*
Y267059D01*
X125719Y267583D01*
X123620D01*
X123096Y267059D01*
Y265484D01*
X127982Y261286D02*
X127458Y260761D01*
Y259712D01*
X127982Y259187D01*
X128507D01*
X129032Y259712D01*
Y260761D01*
X129557Y261286D01*
X130081D01*
X130606Y260761D01*
Y259712D01*
X130081Y259187D01*
X127458Y262336D02*
X130606D01*
X129557Y263385D01*
X130606Y264435D01*
X127458D01*
X127982Y267583D02*
X127458Y267059D01*
Y266009D01*
X127982Y265484D01*
X130081D01*
X130606Y266009D01*
Y267059D01*
X130081Y267583D01*
X127458Y268633D02*
X130606D01*
Y270732D01*
X127458Y271782D02*
X130606D01*
X129557D01*
X127458Y273881D01*
X129032Y272306D01*
X130606Y273881D01*
X117520Y259187D02*
X114371D01*
X117520Y261286D01*
X114371D01*
X117520Y262336D02*
X114371D01*
Y263910D01*
X114896Y264435D01*
X115945D01*
X116470Y263910D01*
Y262336D01*
Y263385D02*
X117520Y264435D01*
X114896Y267583D02*
X114371Y267059D01*
Y266009D01*
X114896Y265484D01*
X115421D01*
X115945Y266009D01*
Y267059D01*
X116470Y267583D01*
X116995D01*
X117520Y267059D01*
Y266009D01*
X116995Y265484D01*
X114371Y268633D02*
Y270732D01*
Y269683D01*
X117520D01*
X119258Y261286D02*
X118733Y260761D01*
Y259712D01*
X119258Y259187D01*
X119783D01*
X120308Y259712D01*
Y260761D01*
X120832Y261286D01*
X121357D01*
X121882Y260761D01*
Y259712D01*
X121357Y259187D01*
X118733Y262336D02*
X121882D01*
X120832Y263385D01*
X121882Y264435D01*
X118733D01*
Y265484D02*
X121882D01*
Y267059D01*
X121357Y267583D01*
X119258D01*
X118733Y267059D01*
Y265484D01*
Y268633D02*
Y269683D01*
Y269158D01*
X121882D01*
Y268633D01*
Y269683D01*
X118733Y272831D02*
Y271782D01*
X119258Y271257D01*
X121357D01*
X121882Y271782D01*
Y272831D01*
X121357Y273356D01*
X119258D01*
X118733Y272831D01*
X137990Y312238D02*
X137466Y312763D01*
Y313813D01*
X137990Y314337D01*
X138515D01*
X139040Y313813D01*
Y313288D01*
Y313813D01*
X139565Y314337D01*
X140089D01*
X140614Y313813D01*
Y312763D01*
X140089Y312238D01*
X140614Y315387D02*
X140089D01*
Y315912D01*
X140614D01*
Y315387D01*
X137990Y318011D02*
X137466Y318536D01*
Y319585D01*
X137990Y320110D01*
X138515D01*
X139040Y319585D01*
Y319060D01*
Y319585D01*
X139565Y320110D01*
X140089D01*
X140614Y319585D01*
Y318536D01*
X140089Y318011D01*
X137466Y321159D02*
X139565D01*
X140614Y322209D01*
X139565Y323258D01*
X137466D01*
X142352Y316961D02*
X141828Y316437D01*
Y315387D01*
X142352Y314862D01*
X144451D01*
X144976Y315387D01*
Y316437D01*
X144451Y316961D01*
X143402D01*
Y315912D01*
X144976Y318011D02*
X141828D01*
X144976Y320110D01*
X141828D01*
Y321159D02*
X144976D01*
Y322734D01*
X144451Y323258D01*
X142352D01*
X141828Y322734D01*
Y321159D01*
X136252Y314862D02*
X133103D01*
Y316437D01*
X133628Y316961D01*
X134678D01*
X135202Y316437D01*
Y314862D01*
X136252Y318011D02*
X134153D01*
X133103Y319060D01*
X134153Y320110D01*
X136252D01*
X134678D01*
Y318011D01*
X136252Y322734D02*
X133103D01*
X134678Y321159D01*
Y323258D01*
X131890Y314862D02*
X128741D01*
Y316437D01*
X129266Y316961D01*
X130315D01*
X130840Y316437D01*
Y314862D01*
X131890Y318011D02*
X129791D01*
X128741Y319060D01*
X129791Y320110D01*
X131890D01*
X130315D01*
Y318011D01*
X128741Y323258D02*
Y321159D01*
X130315D01*
X129791Y322209D01*
Y322734D01*
X130315Y323258D01*
X131365D01*
X131890Y322734D01*
Y321684D01*
X131365Y321159D01*
X154232Y256102D02*
X151084D01*
Y257677D01*
X151608Y258201D01*
X152658D01*
X153183Y257677D01*
Y256102D01*
Y257152D02*
X154232Y258201D01*
X151084Y259251D02*
X154232Y261350D01*
X151084D02*
X154232Y259251D01*
X151084Y238583D02*
Y240682D01*
Y239632D01*
X154232D01*
X151084Y241731D02*
X154232Y243830D01*
X151084D02*
X154232Y241731D01*
X167816Y238090D02*
X170440D01*
X170965Y238615D01*
Y239665D01*
X170440Y240190D01*
X167816D01*
X170965Y241239D02*
X168866D01*
X167816Y242289D01*
X168866Y243338D01*
X170965D01*
X169390D01*
Y241239D01*
X170965Y244388D02*
X167816D01*
Y245962D01*
X168341Y246487D01*
X169390D01*
X169915Y245962D01*
Y244388D01*
Y245437D02*
X170965Y246487D01*
X167816Y247536D02*
Y249635D01*
Y248586D01*
X170965D01*
X167816Y253834D02*
X170965D01*
Y255408D01*
X170440Y255933D01*
X169915D01*
X169390Y255408D01*
Y253834D01*
Y255408D01*
X168866Y255933D01*
X168341D01*
X167816Y255408D01*
Y253834D01*
X170965Y256982D02*
X167816D01*
X168866Y258032D01*
X167816Y259081D01*
X170965D01*
X168341Y262230D02*
X167816Y261705D01*
Y260655D01*
X168341Y260131D01*
X168866D01*
X169390Y260655D01*
Y261705D01*
X169915Y262230D01*
X170440D01*
X170965Y261705D01*
Y260655D01*
X170440Y260131D01*
X140748Y252756D02*
Y255905D01*
X142322D01*
X142847Y255380D01*
Y254330D01*
X142322Y253805D01*
X140748D01*
X143897Y255905D02*
Y252756D01*
X145471D01*
X145996Y253281D01*
Y253805D01*
X145471Y254330D01*
X143897D01*
X145471D01*
X145996Y254855D01*
Y255380D01*
X145471Y255905D01*
X143897D01*
X147045D02*
X149144D01*
Y255380D01*
X147045Y253281D01*
Y252756D01*
X140748Y244032D02*
Y247180D01*
X142322D01*
X142847Y246655D01*
Y245606D01*
X142322Y245081D01*
X140748D01*
X143897Y247180D02*
Y244032D01*
X145471D01*
X145996Y244556D01*
Y245081D01*
X145471Y245606D01*
X143897D01*
X145471D01*
X145996Y246131D01*
Y246655D01*
X145471Y247180D01*
X143897D01*
X149144D02*
X148095Y246655D01*
X147045Y245606D01*
Y244556D01*
X147570Y244032D01*
X148619D01*
X149144Y244556D01*
Y245081D01*
X148619Y245606D01*
X147045D01*
X98347Y356318D02*
Y357060D01*
X97605Y357803D01*
X96863Y357803D01*
X95378Y356318D01*
Y355576D01*
X96121Y354834D01*
X96863Y354834D01*
X98718Y352237D02*
X97234Y353721D01*
X100202D01*
X100573Y354092D01*
Y354834D01*
X99831Y355576D01*
X99089Y355576D01*
X100573Y350381D02*
X102800Y352608D01*
X100573Y352608D01*
X102058Y351123D01*
X127034Y354954D02*
Y357053D01*
X126509Y357578D01*
X125460D01*
X124935Y357053D01*
Y354954D01*
X125460Y354430D01*
X126509D01*
X125985Y355479D02*
X127034Y354430D01*
X126509D02*
X127034Y354954D01*
X129658Y354430D02*
Y357578D01*
X128084Y356004D01*
X130183D01*
X169502Y346255D02*
X170552D01*
X170027D01*
Y343106D01*
X169502D01*
X170552D01*
X174225Y345730D02*
X173700Y346255D01*
X172651D01*
X172126Y345730D01*
Y343631D01*
X172651Y343106D01*
X173700D01*
X174225Y343631D01*
X175274Y343106D02*
X176324D01*
X175799D01*
Y346255D01*
X175274Y345730D01*
X177898D02*
X178423Y346255D01*
X179473D01*
X179997Y345730D01*
Y343631D01*
X179473Y343106D01*
X178423D01*
X177898Y343631D01*
Y345730D01*
X178412Y322900D02*
X176313D01*
X175788Y322376D01*
Y321326D01*
X176313Y320801D01*
X178412D01*
X178937Y321326D01*
Y322376D01*
X177887Y321851D02*
X178937Y322900D01*
Y322376D02*
X178412Y322900D01*
Y323950D02*
X178937Y324475D01*
Y325524D01*
X178412Y326049D01*
X176313D01*
X175788Y325524D01*
Y324475D01*
X176313Y323950D01*
X176837D01*
X177362Y324475D01*
Y326049D01*
X175196Y319227D02*
X172048D01*
Y320801D01*
X172573Y321326D01*
X173622D01*
X174147Y320801D01*
Y319227D01*
Y320277D02*
X175196Y321326D01*
Y324475D02*
Y322376D01*
X173097Y324475D01*
X172573D01*
X172048Y323950D01*
Y322901D01*
X172573Y322376D01*
X175196Y327623D02*
Y325524D01*
X173097Y327623D01*
X172573D01*
X172048Y327099D01*
Y326049D01*
X172573Y325524D01*
X166699Y321687D02*
X164600D01*
X164075Y321162D01*
Y320113D01*
X164600Y319588D01*
X166699D01*
X167224Y320113D01*
Y321162D01*
X166174Y320637D02*
X167224Y321687D01*
Y321162D02*
X166699Y321687D01*
X167224Y322737D02*
Y323786D01*
Y323261D01*
X164075D01*
X164600Y322737D01*
Y325360D02*
X164075Y325885D01*
Y326935D01*
X164600Y327459D01*
X166699D01*
X167224Y326935D01*
Y325885D01*
X166699Y325360D01*
X164600D01*
X67193Y370341D02*
X66668Y370866D01*
X65618D01*
X65094Y370341D01*
Y368242D01*
X65618Y367717D01*
X66668D01*
X67193Y368242D01*
X69817Y370866D02*
X68767D01*
X68242Y370341D01*
Y368242D01*
X68767Y367717D01*
X69817D01*
X70341Y368242D01*
Y370341D01*
X69817Y370866D01*
X71391Y367717D02*
Y370866D01*
X73490Y367717D01*
Y370866D01*
X74540Y370341D02*
X75064Y370866D01*
X76114D01*
X76639Y370341D01*
Y369816D01*
X76114Y369291D01*
X75589D01*
X76114D01*
X76639Y368767D01*
Y368242D01*
X76114Y367717D01*
X75064D01*
X74540Y368242D01*
X114108Y391963D02*
X113583Y391438D01*
Y390388D01*
X114108Y389863D01*
X116207D01*
X116732Y390388D01*
Y391438D01*
X116207Y391963D01*
X116732Y393012D02*
Y394062D01*
Y393537D01*
X113583D01*
X114108Y393012D01*
X113583Y397735D02*
X114108Y396685D01*
X115157Y395636D01*
X116207D01*
X116732Y396161D01*
Y397210D01*
X116207Y397735D01*
X115682D01*
X115157Y397210D01*
Y395636D01*
X109662Y383580D02*
X106513D01*
Y385154D01*
X107038Y385679D01*
X108088D01*
X108612Y385154D01*
Y383580D01*
Y384629D02*
X109662Y385679D01*
Y388827D02*
Y386729D01*
X107563Y388827D01*
X107038D01*
X106513Y388303D01*
Y387253D01*
X107038Y386729D01*
X109137Y389877D02*
X109662Y390402D01*
Y391451D01*
X109137Y391976D01*
X107038D01*
X106513Y391451D01*
Y390402D01*
X107038Y389877D01*
X107563D01*
X108088Y390402D01*
Y391976D01*
X67586Y389239D02*
X67062Y389763D01*
X66012D01*
X65487Y389239D01*
Y387139D01*
X66012Y386615D01*
X67062D01*
X67586Y387139D01*
X70210Y389763D02*
X69161D01*
X68636Y389239D01*
Y387139D01*
X69161Y386615D01*
X70210D01*
X70735Y387139D01*
Y389239D01*
X70210Y389763D01*
X71785Y386615D02*
Y389763D01*
X73884Y386615D01*
Y389763D01*
X76508Y386615D02*
Y389763D01*
X74933Y388189D01*
X77032D01*
X75985Y329822D02*
X77035D01*
X76510D01*
Y326674D01*
X75985D01*
X77035D01*
X80708Y329298D02*
X80184Y329822D01*
X79134D01*
X78609Y329298D01*
Y327199D01*
X79134Y326674D01*
X80184D01*
X80708Y327199D01*
X83332Y326674D02*
Y329822D01*
X81758Y328248D01*
X83857D01*
X275855Y357192D02*
Y360341D01*
X277430D01*
X277954Y359816D01*
Y358766D01*
X277430Y358242D01*
X275855D01*
X276905D02*
X277954Y357192D01*
X279004D02*
X280053D01*
X279529D01*
Y360341D01*
X279004Y359816D01*
X283727Y360341D02*
X281628D01*
Y358766D01*
X282677Y359291D01*
X283202D01*
X283727Y358766D01*
Y357717D01*
X283202Y357192D01*
X282152D01*
X281628Y357717D01*
X174311Y357861D02*
X172085Y360087D01*
X173198Y361201D01*
X173940D01*
X174682Y360458D01*
X174682Y359716D01*
X173569Y358603D01*
X174311Y359345D02*
X175796D01*
X178022Y361572D02*
X176538Y360087D01*
Y363056D01*
X176167Y363427D01*
X175425D01*
X174682Y362685D01*
X174682Y361943D01*
X176909Y364169D02*
X176909Y364911D01*
X177651Y365653D01*
X178393D01*
X179877Y364169D01*
X179877Y363427D01*
X179135Y362685D01*
X178393D01*
X176909Y364169D01*
X62763Y277920D02*
X62238Y278444D01*
X61189D01*
X60664Y277920D01*
Y275821D01*
X61189Y275296D01*
X62238D01*
X62763Y275821D01*
X63813Y277920D02*
X64337Y278444D01*
X65387D01*
X65912Y277920D01*
Y277395D01*
X65387Y276870D01*
X64862D01*
X65387D01*
X65912Y276345D01*
Y275821D01*
X65387Y275296D01*
X64337D01*
X63813Y275821D01*
X66961Y277920D02*
X67486Y278444D01*
X68536D01*
X69060Y277920D01*
Y275821D01*
X68536Y275296D01*
X67486D01*
X66961Y275821D01*
Y277920D01*
X62566Y273294D02*
X62041Y273818D01*
X60992D01*
X60467Y273294D01*
Y271195D01*
X60992Y270670D01*
X62041D01*
X62566Y271195D01*
X65715Y270670D02*
X63616D01*
X65715Y272769D01*
Y273294D01*
X65190Y273818D01*
X64141D01*
X63616Y273294D01*
X66764Y271195D02*
X67289Y270670D01*
X68339D01*
X68863Y271195D01*
Y273294D01*
X68339Y273818D01*
X67289D01*
X66764Y273294D01*
Y272769D01*
X67289Y272244D01*
X68863D01*
X97409Y272211D02*
X96884Y272736D01*
X95834D01*
X95310Y272211D01*
Y270112D01*
X95834Y269587D01*
X96884D01*
X97409Y270112D01*
X98458Y272211D02*
X98983Y272736D01*
X100033D01*
X100557Y272211D01*
Y271686D01*
X100033Y271161D01*
X99508D01*
X100033D01*
X100557Y270637D01*
Y270112D01*
X100033Y269587D01*
X98983D01*
X98458Y270112D01*
X103181Y269587D02*
Y272736D01*
X101607Y271161D01*
X103706D01*
X97409Y276837D02*
X96884Y277362D01*
X95834D01*
X95310Y276837D01*
Y274738D01*
X95834Y274213D01*
X96884D01*
X97409Y274738D01*
X98458Y276837D02*
X98983Y277362D01*
X100033D01*
X100557Y276837D01*
Y276312D01*
X100033Y275787D01*
X99508D01*
X100033D01*
X100557Y275263D01*
Y274738D01*
X100033Y274213D01*
X98983D01*
X98458Y274738D01*
X101607Y276837D02*
X102132Y277362D01*
X103181D01*
X103706Y276837D01*
Y276312D01*
X103181Y275787D01*
X102656D01*
X103181D01*
X103706Y275263D01*
Y274738D01*
X103181Y274213D01*
X102132D01*
X101607Y274738D01*
X108301Y265322D02*
X107776Y264797D01*
Y263748D01*
X108301Y263223D01*
X110400D01*
X110925Y263748D01*
Y264797D01*
X110400Y265322D01*
X108301Y266372D02*
X107776Y266897D01*
Y267946D01*
X108301Y268471D01*
X108826D01*
X109350Y267946D01*
Y267421D01*
Y267946D01*
X109875Y268471D01*
X110400D01*
X110925Y267946D01*
Y266897D01*
X110400Y266372D01*
X110925Y271619D02*
Y269520D01*
X108826Y271619D01*
X108301D01*
X107776Y271095D01*
Y270045D01*
X108301Y269520D01*
X75328Y293111D02*
X74804Y292586D01*
Y291536D01*
X75328Y291012D01*
X77428D01*
X77952Y291536D01*
Y292586D01*
X77428Y293111D01*
X75328Y294160D02*
X74804Y294685D01*
Y295735D01*
X75328Y296259D01*
X75853D01*
X76378Y295735D01*
Y295210D01*
Y295735D01*
X76903Y296259D01*
X77428D01*
X77952Y295735D01*
Y294685D01*
X77428Y294160D01*
X77952Y297309D02*
Y298358D01*
Y297834D01*
X74804D01*
X75328Y297309D01*
X165355Y366143D02*
Y367193D01*
Y366668D01*
X168503D01*
Y366143D01*
Y367193D01*
X165880Y370866D02*
X165355Y370341D01*
Y369292D01*
X165880Y368767D01*
X167979D01*
X168503Y369292D01*
Y370341D01*
X167979Y370866D01*
X165355Y371915D02*
Y374014D01*
X165880D01*
X167979Y371915D01*
X168503D01*
X173754Y153740D02*
Y150591D01*
X175328D01*
X175853Y151116D01*
Y153215D01*
X175328Y153740D01*
X173754D01*
X176903Y153215D02*
X177427Y153740D01*
X178477D01*
X179002Y153215D01*
Y152690D01*
X178477Y152165D01*
X177952D01*
X178477D01*
X179002Y151641D01*
Y151116D01*
X178477Y150591D01*
X177427D01*
X176903Y151116D01*
X142927Y163414D02*
X140701Y165640D01*
X141814Y166754D01*
X142556D01*
X143298Y166012D01*
X143298Y165269D01*
X142185Y164156D01*
X142927Y164898D02*
X144411D01*
X146267Y166754D02*
X144040Y168980D01*
X144040Y166754D01*
X145524Y168238D01*
X141732Y383597D02*
X138583D01*
Y385172D01*
X139108Y385696D01*
X140157D01*
X140682Y385172D01*
Y383597D01*
Y384647D02*
X141732Y385696D01*
X139108Y386746D02*
X138583Y387270D01*
Y388320D01*
X139108Y388845D01*
X139633D01*
X140157Y388320D01*
Y387795D01*
Y388320D01*
X140682Y388845D01*
X141207D01*
X141732Y388320D01*
Y387270D01*
X141207Y386746D01*
X139108Y389894D02*
X138583Y390419D01*
Y391469D01*
X139108Y391993D01*
X141207D01*
X141732Y391469D01*
Y390419D01*
X141207Y389894D01*
X139108D01*
X202362Y383204D02*
X199213D01*
Y384778D01*
X199738Y385302D01*
X200787D01*
X201312Y384778D01*
Y383204D01*
Y384253D02*
X202362Y385302D01*
Y388451D02*
Y386352D01*
X200263Y388451D01*
X199738D01*
X199213Y387926D01*
Y386877D01*
X199738Y386352D01*
Y389501D02*
X199213Y390025D01*
Y391075D01*
X199738Y391600D01*
X200263D01*
X200787Y391075D01*
X201312Y391600D01*
X201837D01*
X202362Y391075D01*
Y390025D01*
X201837Y389501D01*
X201312D01*
X200787Y390025D01*
X200263Y389501D01*
X199738D01*
X200787Y390025D02*
Y391075D01*
X167913Y383991D02*
X164764D01*
Y385565D01*
X165289Y386090D01*
X166339D01*
X166863Y385565D01*
Y383991D01*
Y385040D02*
X167913Y386090D01*
Y389239D02*
Y387139D01*
X165814Y389239D01*
X165289D01*
X164764Y388714D01*
Y387664D01*
X165289Y387139D01*
X164764Y390288D02*
Y392387D01*
X165289D01*
X167388Y390288D01*
X167913D01*
X106497Y135532D02*
Y138681D01*
X108072D01*
X108596Y138156D01*
Y137106D01*
X108072Y136582D01*
X106497D01*
X107547D02*
X108596Y135532D01*
X109646D02*
X110696D01*
X110171D01*
Y138681D01*
X109646Y138156D01*
X112270Y136057D02*
X112794Y135532D01*
X113844D01*
X114369Y136057D01*
Y138156D01*
X113844Y138681D01*
X112794D01*
X112270Y138156D01*
Y137631D01*
X112794Y137106D01*
X114369D01*
X120178Y187862D02*
X123326D01*
Y189961D01*
Y191010D02*
Y192060D01*
Y191535D01*
X120178D01*
X120702Y191010D01*
X173163Y296720D02*
X172638Y296195D01*
Y295146D01*
X173163Y294621D01*
X175262D01*
X175787Y295146D01*
Y296195D01*
X175262Y296720D01*
X175787Y299868D02*
Y297769D01*
X173688Y299868D01*
X173163D01*
X172638Y299344D01*
Y298294D01*
X173163Y297769D01*
X175787Y303017D02*
Y300918D01*
X173688Y303017D01*
X173163D01*
X172638Y302492D01*
Y301443D01*
X173163Y300918D01*
X307022Y283950D02*
Y286050D01*
X306497Y286574D01*
X305447D01*
X304923Y286050D01*
Y283950D01*
X305447Y283426D01*
X306497D01*
X305972Y284475D02*
X307022Y283426D01*
X306497D02*
X307022Y283950D01*
X308071Y283426D02*
X309121D01*
X308596D01*
Y286574D01*
X308071Y286050D01*
X312794Y283426D02*
X310695D01*
X312794Y285525D01*
Y286050D01*
X312269Y286574D01*
X311220D01*
X310695Y286050D01*
X142958Y172985D02*
X142433Y172460D01*
Y171411D01*
X142958Y170886D01*
X145057D01*
X145582Y171411D01*
Y172460D01*
X145057Y172985D01*
X145582Y176134D02*
Y174035D01*
X143483Y176134D01*
X142958D01*
X142433Y175609D01*
Y174559D01*
X142958Y174035D01*
Y177183D02*
X142433Y177708D01*
Y178758D01*
X142958Y179282D01*
X143483D01*
X144008Y178758D01*
X144532Y179282D01*
X145057D01*
X145582Y178758D01*
Y177708D01*
X145057Y177183D01*
X144532D01*
X144008Y177708D01*
X143483Y177183D01*
X142958D01*
X144008Y177708D02*
Y178758D01*
X61356Y109494D02*
X60614D01*
X59872Y108752D01*
X59872Y108010D01*
X61356Y106526D01*
X62098D01*
X62840Y107268D01*
X62840Y108010D01*
X65438Y109865D02*
X63954Y108381D01*
Y111349D01*
X63583Y111721D01*
X62840D01*
X62098Y110978D01*
X62098Y110236D01*
X63954Y112834D02*
X65438Y114318D01*
X65809Y113947D01*
Y110978D01*
X66180Y110607D01*
X242651Y194948D02*
X242126Y194423D01*
Y193374D01*
X242651Y192849D01*
X244750D01*
X245275Y193374D01*
Y194423D01*
X244750Y194948D01*
X245275Y198097D02*
Y195998D01*
X243176Y198097D01*
X242651D01*
X242126Y197572D01*
Y196522D01*
X242651Y195998D01*
X242126Y201245D02*
X242651Y200196D01*
X243701Y199146D01*
X244750D01*
X245275Y199671D01*
Y200721D01*
X244750Y201245D01*
X244226D01*
X243701Y200721D01*
Y199146D01*
X90834Y326740D02*
X90310Y326215D01*
Y325165D01*
X90834Y324640D01*
X92933D01*
X93458Y325165D01*
Y326215D01*
X92933Y326740D01*
X93458Y329888D02*
Y327789D01*
X91359Y329888D01*
X90834D01*
X90310Y329363D01*
Y328314D01*
X90834Y327789D01*
X90310Y333037D02*
Y330938D01*
X91884D01*
X91359Y331987D01*
Y332512D01*
X91884Y333037D01*
X92933D01*
X93458Y332512D01*
Y331462D01*
X92933Y330938D01*
X196687Y362763D02*
X196162Y362238D01*
Y361189D01*
X196687Y360664D01*
X198786D01*
X199311Y361189D01*
Y362238D01*
X198786Y362763D01*
X199311Y365912D02*
Y363813D01*
X197211Y365912D01*
X196687D01*
X196162Y365387D01*
Y364337D01*
X196687Y363813D01*
Y366961D02*
X196162Y367486D01*
Y368536D01*
X196687Y369060D01*
X197211D01*
X197736Y368536D01*
Y368011D01*
Y368536D01*
X198261Y369060D01*
X198786D01*
X199311Y368536D01*
Y367486D01*
X198786Y366961D01*
X178970Y297048D02*
X178445Y296523D01*
Y295474D01*
X178970Y294949D01*
X181069D01*
X181594Y295474D01*
Y296523D01*
X181069Y297048D01*
X181594Y300196D02*
Y298097D01*
X179495Y300196D01*
X178970D01*
X178445Y299672D01*
Y298622D01*
X178970Y298097D01*
X181594Y301246D02*
Y302295D01*
Y301771D01*
X178445D01*
X178970Y301246D01*
X241138Y352665D02*
X238179Y351588D01*
X237641Y353067D01*
X237954Y353740D01*
X238941Y354099D01*
X239613Y353785D01*
X240152Y352306D01*
X239793Y353292D02*
X240420Y354637D01*
X240061Y355623D02*
X239702Y356610D01*
X239881Y356117D01*
X236923Y355040D01*
X237595Y354726D01*
X236698Y357192D02*
X236025Y357505D01*
X235666Y358491D01*
X235980Y359164D01*
X236473Y359344D01*
X237146Y359030D01*
X237459Y359702D01*
X237952Y359882D01*
X238625Y359568D01*
X238984Y358582D01*
X238670Y357909D01*
X238177Y357730D01*
X237505Y358044D01*
X237191Y357371D01*
X236698Y357192D01*
X237505Y358044D02*
X237146Y359030D01*
X210728Y323919D02*
X207579D01*
Y325493D01*
X208104Y326018D01*
X209154D01*
X209678Y325493D01*
Y323919D01*
Y324968D02*
X210728Y326018D01*
Y327067D02*
Y328117D01*
Y327592D01*
X207579D01*
X208104Y327067D01*
X207579Y329691D02*
Y331790D01*
X208104D01*
X210203Y329691D01*
X210728D01*
X307349Y288301D02*
Y290400D01*
X306825Y290925D01*
X305775D01*
X305251Y290400D01*
Y288301D01*
X305775Y287776D01*
X306825D01*
X306300Y288826D02*
X307349Y287776D01*
X306825D02*
X307349Y288301D01*
X308399Y287776D02*
X309449D01*
X308924D01*
Y290925D01*
X308399Y290400D01*
X311023Y287776D02*
X312072D01*
X311548D01*
Y290925D01*
X311023Y290400D01*
X235276Y349824D02*
X236325D01*
X235800D01*
Y346675D01*
X235276D01*
X236325D01*
X239999Y349299D02*
X239474Y349824D01*
X238424D01*
X237899Y349299D01*
Y347200D01*
X238424Y346675D01*
X239474D01*
X239999Y347200D01*
X241048Y346675D02*
X242097D01*
X241573D01*
Y349824D01*
X241048Y349299D01*
X243672D02*
X244197Y349824D01*
X245246D01*
X245771Y349299D01*
Y348774D01*
X245246Y348249D01*
X244721D01*
X245246D01*
X245771Y347725D01*
Y347200D01*
X245246Y346675D01*
X244197D01*
X243672Y347200D01*
X73754Y192094D02*
X73229Y191569D01*
Y190520D01*
X73754Y189995D01*
X75853D01*
X76377Y190520D01*
Y191569D01*
X75853Y192094D01*
X76377Y195243D02*
Y193143D01*
X74278Y195243D01*
X73754D01*
X73229Y194718D01*
Y193668D01*
X73754Y193143D01*
Y196292D02*
X73229Y196817D01*
Y197866D01*
X73754Y198391D01*
X75853D01*
X76377Y197866D01*
Y196817D01*
X75853Y196292D01*
X73754D01*
X270795Y354156D02*
X272894D01*
Y353631D01*
X270795Y351533D01*
Y351008D01*
X272894D01*
X273944D02*
X274993D01*
X274469D01*
Y354156D01*
X273944Y353631D01*
X386877Y276771D02*
Y274147D01*
X387402Y273623D01*
X388452D01*
X388976Y274147D01*
Y276771D01*
X390026Y273623D02*
X391075D01*
X390551D01*
Y276771D01*
X390026Y276246D01*
X187049Y287818D02*
X183900D01*
Y289392D01*
X184425Y289917D01*
X185475D01*
X186000Y289392D01*
Y287818D01*
Y288868D02*
X187049Y289917D01*
Y293066D02*
Y290967D01*
X184950Y293066D01*
X184425D01*
X183900Y292541D01*
Y291492D01*
X184425Y290967D01*
X183900Y296214D02*
Y294115D01*
X185475D01*
X184950Y295165D01*
Y295690D01*
X185475Y296214D01*
X186524D01*
X187049Y295690D01*
Y294640D01*
X186524Y294115D01*
X186865Y298643D02*
X183716D01*
Y300218D01*
X184241Y300743D01*
X185291D01*
X185815Y300218D01*
Y298643D01*
Y299693D02*
X186865Y300743D01*
Y303891D02*
Y301792D01*
X184766Y303891D01*
X184241D01*
X183716Y303366D01*
Y302317D01*
X184241Y301792D01*
X186865Y306515D02*
X183716D01*
X185291Y304941D01*
Y307040D01*
X273623Y389371D02*
Y392519D01*
X275198D01*
X275722Y391994D01*
Y390945D01*
X275198Y390420D01*
X273623D01*
X274673D02*
X275722Y389371D01*
X276772D02*
X277821D01*
X277297D01*
Y392519D01*
X276772Y391994D01*
X281495Y392519D02*
X280445Y391994D01*
X279396Y390945D01*
Y389895D01*
X279921Y389371D01*
X280970D01*
X281495Y389895D01*
Y390420D01*
X280970Y390945D01*
X279396D01*
X71555Y135828D02*
X68406D01*
Y137402D01*
X68931Y137927D01*
X69980D01*
X70505Y137402D01*
Y135828D01*
Y136878D02*
X71555Y137927D01*
Y138977D02*
Y140026D01*
Y139501D01*
X68406D01*
X68931Y138977D01*
X71555Y143175D02*
X68406D01*
X69980Y141601D01*
Y143700D01*
X71555Y125887D02*
X68406D01*
Y127461D01*
X68931Y127986D01*
X69980D01*
X70505Y127461D01*
Y125887D01*
Y126937D02*
X71555Y127986D01*
Y129036D02*
Y130085D01*
Y129560D01*
X68406D01*
X68931Y129036D01*
Y131659D02*
X68406Y132184D01*
Y133234D01*
X68931Y133759D01*
X69455D01*
X69980Y133234D01*
Y132709D01*
Y133234D01*
X70505Y133759D01*
X71030D01*
X71555Y133234D01*
Y132184D01*
X71030Y131659D01*
X273029Y175986D02*
X269880D01*
Y177560D01*
X270405Y178085D01*
X271455D01*
X271979Y177560D01*
Y175986D01*
Y177035D02*
X273029Y178085D01*
Y179134D02*
Y180184D01*
Y179659D01*
X269880D01*
X270405Y179134D01*
X273029Y183857D02*
Y181758D01*
X270930Y183857D01*
X270405D01*
X269880Y183332D01*
Y182283D01*
X270405Y181758D01*
X249803Y175986D02*
X246654D01*
Y177560D01*
X247179Y178085D01*
X248228D01*
X248753Y177560D01*
Y175986D01*
Y177035D02*
X249803Y178085D01*
Y179134D02*
Y180184D01*
Y179659D01*
X246654D01*
X247179Y179134D01*
X249803Y181758D02*
Y182808D01*
Y182283D01*
X246654D01*
X247179Y181758D01*
X263738Y175986D02*
X260590D01*
Y177560D01*
X261115Y178085D01*
X262164D01*
X262689Y177560D01*
Y175986D01*
Y177035D02*
X263738Y178085D01*
Y179134D02*
Y180184D01*
Y179659D01*
X260590D01*
X261115Y179134D01*
Y181758D02*
X260590Y182283D01*
Y183332D01*
X261115Y183857D01*
X263214D01*
X263738Y183332D01*
Y182283D01*
X263214Y181758D01*
X261115D01*
X259093Y175986D02*
X255944D01*
Y177560D01*
X256469Y178085D01*
X257519D01*
X258044Y177560D01*
Y175986D01*
Y177035D02*
X259093Y178085D01*
X258568Y179134D02*
X259093Y179659D01*
Y180708D01*
X258568Y181233D01*
X256469D01*
X255944Y180708D01*
Y179659D01*
X256469Y179134D01*
X256994D01*
X257519Y179659D01*
Y181233D01*
X59876Y232678D02*
Y235826D01*
X61450D01*
X61975Y235301D01*
Y234252D01*
X61450Y233727D01*
X59876D01*
X60926D02*
X61975Y232678D01*
X63025Y235301D02*
X63550Y235826D01*
X64599D01*
X65124Y235301D01*
Y234777D01*
X64599Y234252D01*
X65124Y233727D01*
Y233202D01*
X64599Y232678D01*
X63550D01*
X63025Y233202D01*
Y233727D01*
X63550Y234252D01*
X63025Y234777D01*
Y235301D01*
X63550Y234252D02*
X64599D01*
X63287Y238223D02*
X60138D01*
Y239797D01*
X60663Y240322D01*
X61713D01*
X62237Y239797D01*
Y238223D01*
Y239272D02*
X63287Y240322D01*
X60138Y241371D02*
Y243470D01*
X60663D01*
X62762Y241371D01*
X63287D01*
X63090Y245309D02*
X59941D01*
Y246884D01*
X60466Y247408D01*
X61516D01*
X62041Y246884D01*
Y245309D01*
Y246359D02*
X63090Y247408D01*
X59941Y250557D02*
X60466Y249507D01*
X61516Y248458D01*
X62565D01*
X63090Y248983D01*
Y250032D01*
X62565Y250557D01*
X62041D01*
X61516Y250032D01*
Y248458D01*
X140716Y170986D02*
X137567D01*
Y172560D01*
X138092Y173085D01*
X139141D01*
X139666Y172560D01*
Y170986D01*
Y172035D02*
X140716Y173085D01*
X138092Y174134D02*
X137567Y174659D01*
Y175709D01*
X138092Y176233D01*
X138616D01*
X139141Y175709D01*
Y175184D01*
Y175709D01*
X139666Y176233D01*
X140191D01*
X140716Y175709D01*
Y174659D01*
X140191Y174134D01*
X135760Y163996D02*
X132612D01*
Y165570D01*
X133137Y166095D01*
X134186D01*
X134711Y165570D01*
Y163996D01*
Y165045D02*
X135760Y166095D01*
Y169243D02*
Y167144D01*
X133661Y169243D01*
X133137D01*
X132612Y168719D01*
Y167669D01*
X133137Y167144D01*
X95637Y264764D02*
Y267913D01*
X97211D01*
X97736Y267388D01*
Y266339D01*
X97211Y265814D01*
X95637D01*
X96687D02*
X97736Y264764D01*
X98786D02*
X99835D01*
X99310D01*
Y267913D01*
X98786Y267388D01*
X198589Y327822D02*
X196490D01*
X195965Y327297D01*
Y326247D01*
X196490Y325723D01*
X198589D01*
X199114Y326247D01*
Y327297D01*
X198064Y326772D02*
X199114Y327822D01*
Y327297D02*
X198589Y327822D01*
X196490Y328871D02*
X195965Y329396D01*
Y330446D01*
X196490Y330970D01*
X197015D01*
X197539Y330446D01*
X198064Y330970D01*
X198589D01*
X199114Y330446D01*
Y329396D01*
X198589Y328871D01*
X198064D01*
X197539Y329396D01*
X197015Y328871D01*
X196490D01*
X197539Y329396D02*
Y330446D01*
X218464Y327920D02*
X216365D01*
X215841Y327395D01*
Y326346D01*
X216365Y325821D01*
X218464D01*
X218989Y326346D01*
Y327395D01*
X217939Y326871D02*
X218989Y327920D01*
Y327395D02*
X218464Y327920D01*
X215841Y328970D02*
Y331069D01*
X216365D01*
X218464Y328970D01*
X218989D01*
X150952Y354954D02*
Y357053D01*
X150427Y357578D01*
X149377D01*
X148853Y357053D01*
Y354954D01*
X149377Y354430D01*
X150427D01*
X149902Y355479D02*
X150952Y354430D01*
X150427D02*
X150952Y354954D01*
X154100Y357578D02*
X153051Y357053D01*
X152001Y356004D01*
Y354954D01*
X152526Y354430D01*
X153576D01*
X154100Y354954D01*
Y355479D01*
X153576Y356004D01*
X152001D01*
X138616Y354856D02*
Y356955D01*
X138091Y357480D01*
X137041D01*
X136517Y356955D01*
Y354856D01*
X137041Y354331D01*
X138091D01*
X137566Y355381D02*
X138616Y354331D01*
X138091D02*
X138616Y354856D01*
X141764Y357480D02*
X139665D01*
Y355906D01*
X140715Y356430D01*
X141240D01*
X141764Y355906D01*
Y354856D01*
X141240Y354331D01*
X140190D01*
X139665Y354856D01*
X114337Y355053D02*
Y357152D01*
X113813Y357677D01*
X112763D01*
X112238Y357152D01*
Y355053D01*
X112763Y354528D01*
X113813D01*
X113288Y355578D02*
X114337Y354528D01*
X113813D02*
X114337Y355053D01*
X115387Y357152D02*
X115912Y357677D01*
X116961D01*
X117486Y357152D01*
Y356627D01*
X116961Y356102D01*
X116437D01*
X116961D01*
X117486Y355578D01*
Y355053D01*
X116961Y354528D01*
X115912D01*
X115387Y355053D01*
X207053Y214633D02*
X204954D01*
X204430Y214108D01*
Y213058D01*
X204954Y212534D01*
X207053D01*
X207578Y213058D01*
Y214108D01*
X206529Y213583D02*
X207578Y214633D01*
Y214108D02*
X207053Y214633D01*
X207578Y217781D02*
Y215682D01*
X205479Y217781D01*
X204954D01*
X204430Y217257D01*
Y216207D01*
X204954Y215682D01*
X207053Y201181D02*
X204954D01*
X204430Y200656D01*
Y199607D01*
X204954Y199082D01*
X207053D01*
X207578Y199607D01*
Y200656D01*
X206529Y200132D02*
X207578Y201181D01*
Y200656D02*
X207053Y201181D01*
X207578Y202231D02*
Y203280D01*
Y202755D01*
X204430D01*
X204954Y202231D01*
X120538Y231889D02*
X119489D01*
X120013D01*
Y229265D01*
X119489Y228741D01*
X118964D01*
X118439Y229265D01*
X123687Y228741D02*
X121588D01*
X123687Y230840D01*
Y231364D01*
X123162Y231889D01*
X122113D01*
X121588Y231364D01*
X159054Y358032D02*
X159796Y358775D01*
X159425Y358403D01*
X161652Y356177D01*
X161281Y355806D01*
X162023Y356548D01*
X162765Y361001D02*
X162023D01*
X161281Y360259D01*
X161281Y359517D01*
X162765Y358032D01*
X163507D01*
X164249Y358775D01*
X164249Y359517D01*
X165362Y359888D02*
X166104Y360630D01*
X165733Y360259D01*
X163507Y362485D01*
X163507Y361743D01*
X168702Y363227D02*
X167218Y361743D01*
Y364712D01*
X166847Y365083D01*
X166104D01*
X165362Y364341D01*
Y363598D01*
X212402Y289864D02*
Y290913D01*
Y290388D01*
X215551D01*
Y289864D01*
Y290913D01*
X212927Y294587D02*
X212402Y294062D01*
Y293012D01*
X212927Y292488D01*
X215026D01*
X215551Y293012D01*
Y294062D01*
X215026Y294587D01*
X215551Y295636D02*
Y296686D01*
Y296161D01*
X212402D01*
X212927Y295636D01*
X215551Y298260D02*
Y299309D01*
Y298785D01*
X212402D01*
X212927Y298260D01*
X190946Y347244D02*
X191996D01*
X191471D01*
Y344095D01*
X190946D01*
X191996D01*
X195669Y346719D02*
X195144Y347244D01*
X194095D01*
X193570Y346719D01*
Y344620D01*
X194095Y344095D01*
X195144D01*
X195669Y344620D01*
X196719D02*
X197243Y344095D01*
X198293D01*
X198818Y344620D01*
Y346719D01*
X198293Y347244D01*
X197243D01*
X196719Y346719D01*
Y346194D01*
X197243Y345669D01*
X198818D01*
X207874Y345390D02*
X208923D01*
X208399D01*
Y342242D01*
X207874D01*
X208923D01*
X212597Y344865D02*
X212072Y345390D01*
X211022D01*
X210498Y344865D01*
Y342766D01*
X211022Y342242D01*
X212072D01*
X212597Y342766D01*
X213646Y344865D02*
X214171Y345390D01*
X215221D01*
X215745Y344865D01*
Y344341D01*
X215221Y343816D01*
X215745Y343291D01*
Y342766D01*
X215221Y342242D01*
X214171D01*
X213646Y342766D01*
Y343291D01*
X214171Y343816D01*
X213646Y344341D01*
Y344865D01*
X214171Y343816D02*
X215221D01*
X128741Y365552D02*
Y366602D01*
Y366077D01*
X131889D01*
Y365552D01*
Y366602D01*
X129265Y370275D02*
X128741Y369751D01*
Y368701D01*
X129265Y368176D01*
X131365D01*
X131889Y368701D01*
Y369751D01*
X131365Y370275D01*
X128741Y373424D02*
X129265Y372374D01*
X130315Y371325D01*
X131365D01*
X131889Y371850D01*
Y372899D01*
X131365Y373424D01*
X130840D01*
X130315Y372899D01*
Y371325D01*
X219982Y188877D02*
X221031D01*
X220506D01*
Y185729D01*
X219982D01*
X221031D01*
X224705Y188353D02*
X224180Y188877D01*
X223130D01*
X222605Y188353D01*
Y186254D01*
X223130Y185729D01*
X224180D01*
X224705Y186254D01*
X227853Y188877D02*
X225754D01*
Y187303D01*
X226803Y187828D01*
X227328D01*
X227853Y187303D01*
Y186254D01*
X227328Y185729D01*
X226279D01*
X225754Y186254D01*
X159081Y303827D02*
X159823Y304569D01*
X159452Y304198D01*
X161678Y301972D01*
X161307Y301601D01*
X162049Y302343D01*
X162792Y306796D02*
X162049D01*
X161307Y306053D01*
X161307Y305311D01*
X162792Y303827D01*
X163534D01*
X164276Y304569D01*
X164276Y305311D01*
X166873Y307167D02*
X165389Y305682D01*
Y308651D01*
X165018Y309022D01*
X164276D01*
X163534Y308280D01*
X163534Y307538D01*
X111648Y143208D02*
X112698D01*
X112173D01*
Y140060D01*
X111648D01*
X112698D01*
X116371Y142683D02*
X115846Y143208D01*
X114797D01*
X114272Y142683D01*
Y140584D01*
X114797Y140060D01*
X115846D01*
X116371Y140584D01*
X117420Y140060D02*
X118470D01*
X117945D01*
Y143208D01*
X117420Y142683D01*
X296006Y359310D02*
Y357211D01*
X297580D01*
Y358260D01*
Y357211D01*
X299154D01*
Y360359D02*
Y361409D01*
Y360884D01*
X296006D01*
X296530Y360359D01*
X75132Y170472D02*
Y167323D01*
X76706D01*
X77231Y167848D01*
Y169947D01*
X76706Y170472D01*
X75132D01*
X80380Y167323D02*
X78281D01*
X80380Y169422D01*
Y169947D01*
X79855Y170472D01*
X78805D01*
X78281Y169947D01*
X338135Y348606D02*
X337320Y345564D01*
X338841Y345157D01*
X339483Y345528D01*
X340027Y347555D01*
X339656Y348198D01*
X338135Y348606D01*
X340361Y344749D02*
X341375Y344478D01*
X340868Y344614D01*
X341683Y347655D01*
X341040Y347284D01*
X152818Y367213D02*
X152294Y367738D01*
X151244D01*
X150719Y367213D01*
Y365114D01*
X151244Y364589D01*
X152294D01*
X152818Y365114D01*
X153868Y364589D02*
X154918D01*
X154393D01*
Y367738D01*
X153868Y367213D01*
X156492D02*
X157017Y367738D01*
X158066D01*
X158591Y367213D01*
Y366688D01*
X158066Y366163D01*
X158591Y365638D01*
Y365114D01*
X158066Y364589D01*
X157017D01*
X156492Y365114D01*
Y365638D01*
X157017Y366163D01*
X156492Y366688D01*
Y367213D01*
X157017Y366163D02*
X158066D01*
X199344Y360892D02*
X198820Y361417D01*
X197770D01*
X197245Y360892D01*
Y358793D01*
X197770Y358268D01*
X198820D01*
X199344Y358793D01*
X200394Y358268D02*
X201444D01*
X200919D01*
Y361417D01*
X200394Y360892D01*
X203018Y361417D02*
X205117D01*
Y360892D01*
X203018Y358793D01*
Y358268D01*
X142045Y367156D02*
X141520Y367681D01*
X140470D01*
X139946Y367156D01*
Y365057D01*
X140470Y364532D01*
X141520D01*
X142045Y365057D01*
X143094Y364532D02*
X144144D01*
X143619D01*
Y367681D01*
X143094Y367156D01*
X147817Y367681D02*
X145718D01*
Y366106D01*
X146767Y366631D01*
X147292D01*
X147817Y366106D01*
Y365057D01*
X147292Y364532D01*
X146243D01*
X145718Y365057D01*
X70112Y148852D02*
X69587Y148328D01*
Y147278D01*
X70112Y146753D01*
X72211D01*
X72736Y147278D01*
Y148328D01*
X72211Y148852D01*
X72736Y149902D02*
Y150951D01*
Y150427D01*
X69587D01*
X70112Y149902D01*
X72736Y154100D02*
X69587D01*
X71161Y152526D01*
Y154625D01*
X251824Y178085D02*
X251299Y177560D01*
Y176510D01*
X251824Y175986D01*
X253923D01*
X254448Y176510D01*
Y177560D01*
X253923Y178085D01*
X254448Y179134D02*
Y180184D01*
Y179659D01*
X251299D01*
X251824Y179134D01*
Y181758D02*
X251299Y182283D01*
Y183332D01*
X251824Y183857D01*
X252349D01*
X252874Y183332D01*
Y182808D01*
Y183332D01*
X253398Y183857D01*
X253923D01*
X254448Y183332D01*
Y182283D01*
X253923Y181758D01*
X265760Y178085D02*
X265235Y177560D01*
Y176510D01*
X265760Y175986D01*
X267859D01*
X268384Y176510D01*
Y177560D01*
X267859Y178085D01*
X268384Y179134D02*
Y180184D01*
Y179659D01*
X265235D01*
X265760Y179134D01*
X268384Y183857D02*
Y181758D01*
X266284Y183857D01*
X265760D01*
X265235Y183332D01*
Y182283D01*
X265760Y181758D01*
X231464Y209809D02*
X230939Y210334D01*
X229889D01*
X229365Y209809D01*
Y207710D01*
X229889Y207186D01*
X230939D01*
X231464Y207710D01*
X232513Y207186D02*
X233563D01*
X233038D01*
Y210334D01*
X232513Y209809D01*
X235137Y207186D02*
X236187D01*
X235662D01*
Y210334D01*
X235137Y209809D01*
X69817Y317848D02*
X69292Y317324D01*
Y316274D01*
X69817Y315749D01*
X71916D01*
X72440Y316274D01*
Y317324D01*
X71916Y317848D01*
X72440Y318898D02*
Y319947D01*
Y319423D01*
X69292D01*
X69817Y318898D01*
Y321522D02*
X69292Y322046D01*
Y323096D01*
X69817Y323621D01*
X71916D01*
X72440Y323096D01*
Y322046D01*
X71916Y321522D01*
X69817D01*
X83498Y202034D02*
X82973Y201509D01*
Y200460D01*
X83498Y199935D01*
X85597D01*
X86121Y200460D01*
Y201509D01*
X85597Y202034D01*
X82973Y203084D02*
Y205183D01*
X83498D01*
X85597Y203084D01*
X86121D01*
X88025Y202034D02*
X87501Y201509D01*
Y200460D01*
X88025Y199935D01*
X90124D01*
X90649Y200460D01*
Y201509D01*
X90124Y202034D01*
X87501Y205183D02*
X88025Y204133D01*
X89075Y203084D01*
X90124D01*
X90649Y203609D01*
Y204658D01*
X90124Y205183D01*
X89600D01*
X89075Y204658D01*
Y203084D01*
X92750Y201936D02*
X92225Y201411D01*
Y200362D01*
X92750Y199837D01*
X94849D01*
X95373Y200362D01*
Y201411D01*
X94849Y201936D01*
X92225Y205084D02*
Y202985D01*
X93799D01*
X93274Y204035D01*
Y204560D01*
X93799Y205084D01*
X94849D01*
X95373Y204560D01*
Y203510D01*
X94849Y202985D01*
X66896Y244357D02*
X66372Y244881D01*
X65322D01*
X64797Y244357D01*
Y242258D01*
X65322Y241733D01*
X66372D01*
X66896Y242258D01*
X69520Y241733D02*
Y244881D01*
X67946Y243307D01*
X70045D01*
X109863Y96043D02*
X109338Y95519D01*
Y94469D01*
X109863Y93944D01*
X111962D01*
X112487Y94469D01*
Y95519D01*
X111962Y96043D01*
X109863Y97093D02*
X109338Y97618D01*
Y98667D01*
X109863Y99192D01*
X110388D01*
X110913Y98667D01*
Y98142D01*
Y98667D01*
X111437Y99192D01*
X111962D01*
X112487Y98667D01*
Y97618D01*
X111962Y97093D01*
X67009Y108420D02*
X66267D01*
X65524Y107678D01*
X65524Y106936D01*
X67009Y105451D01*
X67751D01*
X68493Y106193D01*
X68493Y106936D01*
X71090Y108791D02*
X69606Y107307D01*
Y110275D01*
X69235Y110646D01*
X68493D01*
X67751Y109904D01*
X67751Y109162D01*
X133107Y173020D02*
X132582Y172495D01*
Y171445D01*
X133107Y170921D01*
X135206D01*
X135731Y171445D01*
Y172495D01*
X135206Y173020D01*
X135731Y174069D02*
Y175119D01*
Y174594D01*
X132582D01*
X133107Y174069D01*
D12*
X326181Y316500D02*
G03*
X326181Y316122I0J-189D01*
G01*
X326181D02*
G03*
X326181Y316492I0J185D01*
G01*
X326181Y296303D02*
G03*
X326181Y295925I0J-189D01*
G01*
D02*
G03*
X326181Y296295I0J185D01*
G01*
X237795Y283307D02*
G03*
X237402Y283307I-197J0D01*
G01*
D02*
G03*
X237795Y283307I197J0D01*
G01*
X102185Y231299D02*
X105807D01*
Y278543D01*
X102185D02*
X105807D01*
X58563Y231299D02*
Y278543D01*
Y231299D02*
X62185D01*
X320852Y339844D02*
X353553Y362742D01*
X320852Y339844D02*
X327344Y330572D01*
X348813Y359423D02*
X353553Y362742D01*
X360046Y353470D01*
X356309Y324501D02*
X379549Y231292D01*
X356309Y324501D02*
X392218Y333454D01*
X415458Y240245D01*
X379549Y231292D02*
X415458Y240245D01*
X245039Y345354D02*
X296220D01*
Y294173D02*
Y345354D01*
X245039Y294173D02*
X296220D01*
X245039D02*
Y345354D01*
X163352Y126793D02*
X213013Y139175D01*
X225395Y89514D01*
X175734Y77132D02*
X225395Y89514D01*
X163352Y126793D02*
X175734Y77132D01*
D13*
X163681Y271654D02*
G03*
X163681Y271654I-787J0D01*
G01*
X139254Y224076D02*
X138270Y223092D01*
Y221124D01*
X139254Y220140D01*
X143190D01*
X144174Y221124D01*
Y223092D01*
X143190Y224076D01*
X141222D01*
Y222108D01*
X144174Y226044D02*
X138270D01*
X144174Y229979D01*
X138270D01*
Y231947D02*
X144174D01*
Y234899D01*
X143190Y235883D01*
X139254D01*
X138270Y234899D01*
Y231947D01*
X152497Y220611D02*
Y222579D01*
Y221595D01*
X146593D01*
X147577Y220611D01*
X146593Y229467D02*
X147577Y227499D01*
X149545Y225531D01*
X151513D01*
X152497Y226515D01*
Y228483D01*
X151513Y229467D01*
X150529D01*
X149545Y228483D01*
Y225531D01*
X146593Y231434D02*
X150529D01*
X152497Y233402D01*
X150529Y235370D01*
X146593D01*
X373527Y217256D02*
X372498Y222402D01*
X370439Y219315D02*
X375585Y220344D01*
D14*
X382333Y225149D02*
X395096Y173960D01*
X407504Y166504D01*
X413234Y167933D01*
X397995Y229054D02*
X413657Y232959D01*
X382333Y225149D02*
X397995Y229054D01*
X413234Y167933D02*
X418964Y169361D01*
X426420Y181770D01*
X413657Y232959D02*
X426420Y181770D01*
X132283Y212894D02*
X148031D01*
X96850D02*
X112598D01*
X96850Y161713D02*
X112598D01*
X132283D02*
X148031D01*
Y187303D01*
X96850Y161713D02*
Y212894D01*
X148031Y187303D02*
Y212894D01*
D15*
X387405Y160927D02*
X386231Y166042D01*
X250791Y373226D02*
X248823Y371258D01*
Y367322D01*
X250791Y365354D01*
X258662D01*
X260630Y367322D01*
Y371258D01*
X258662Y373226D01*
X254726D01*
Y369290D01*
X260630Y377162D02*
X248823D01*
X260630Y385033D01*
X248823D01*
Y388969D02*
X260630D01*
Y394872D01*
X258662Y396840D01*
X250791D01*
X248823Y394872D01*
Y388969D01*
D16*
X378163Y209223D02*
X379118Y210814D01*
X378481Y213360D01*
X376890Y214314D01*
X371799Y213041D01*
X370845Y211451D01*
X371481Y208905D01*
X373072Y207950D01*
X380072Y206996D02*
X372436Y205087D01*
X376254Y206041D01*
X377527Y200950D01*
X381345Y201905D01*
X373709Y199996D01*
X374345Y197450D02*
X379436Y198723D01*
X382618Y196814D01*
X380709Y193632D01*
X375618Y192359D01*
X379436Y193314D01*
X378163Y198405D01*
X376254Y189814D02*
X383891Y191723D01*
X384845Y187905D01*
X383891Y186314D01*
X381345Y185678D01*
X379754Y186632D01*
X378800Y190450D01*
X379436Y187905D02*
X377527Y184723D01*
X385800Y178677D02*
X386754Y180268D01*
X386118Y182814D01*
X384527Y183768D01*
X379436Y182496D01*
X378481Y180905D01*
X379118Y178359D01*
X380709Y177405D01*
X383254Y178041D01*
X382618Y180587D01*
X388982Y171359D02*
X387709Y176450D01*
X380072Y174541D01*
X381345Y169450D01*
X383891Y175496D02*
X384527Y172950D01*
X284280Y352008D02*
Y347285D01*
X287429D01*
X291365Y352008D02*
X289790D01*
X289003Y351220D01*
Y348072D01*
X289790Y347285D01*
X291365D01*
X292152Y348072D01*
Y351220D01*
X291365Y352008D01*
X293726Y347285D02*
Y350433D01*
X295301Y352008D01*
X296875Y350433D01*
Y347285D01*
Y349646D01*
X293726D01*
X298449Y352008D02*
Y347285D01*
X300811D01*
X301598Y348072D01*
Y351220D01*
X300811Y352008D01*
X298449D01*
X303172Y349646D02*
X306321D01*
X304746Y351220D02*
Y348072D01*
D17*
X160876Y75650D02*
X172335Y78495D01*
X170912Y84225D01*
X168528Y85660D01*
X166619Y85186D01*
X165183Y82802D01*
X166605Y77072D01*
X165183Y82802D01*
X162799Y84238D01*
X160889Y83763D01*
X159453Y81379D01*
X160876Y75650D01*
X169490Y89954D02*
X161850Y88057D01*
X157082Y90929D01*
X159953Y95697D01*
X167593Y97594D01*
X161863Y96171D01*
X163760Y88532D01*
X155185Y98568D02*
X153288Y106208D01*
X154237Y102388D01*
X165696Y105233D01*
X152340Y110028D02*
X150443Y117667D01*
X151392Y113847D01*
X162851Y116692D01*
X155225Y122909D02*
X153328Y130549D01*
X150456Y125781D02*
X158096Y127678D01*
D18*
X123031Y347833D02*
Y342913D01*
X124015Y341929D01*
X125983D01*
X126967Y342913D01*
Y347833D01*
X128935Y341929D02*
Y345865D01*
X130903Y347833D01*
X132871Y345865D01*
Y341929D01*
Y344881D01*
X128935D01*
X134839Y341929D02*
Y347833D01*
X137791D01*
X138774Y346849D01*
Y344881D01*
X137791Y343897D01*
X134839D01*
X136806D02*
X138774Y341929D01*
X140742Y347833D02*
X144678D01*
X142710D01*
Y341929D01*
X150582D02*
X146646D01*
X150582Y345865D01*
Y346849D01*
X149598Y347833D01*
X147630D01*
X146646Y346849D01*
X98228Y322636D02*
X100196D01*
X99212D01*
Y316732D01*
X98228D01*
X100196D01*
X107084D02*
X103148D01*
X107084Y320668D01*
Y321652D01*
X106100Y322636D01*
X104132D01*
X103148Y321652D01*
X112987D02*
X112003Y322636D01*
X110036D01*
X109052Y321652D01*
Y317716D01*
X110036Y316732D01*
X112003D01*
X112987Y317716D01*
X114955Y316732D02*
X116923D01*
X115939D01*
Y322636D01*
X114955Y321652D01*
M02*
