G04*
G04 #@! TF.GenerationSoftware,Altium Limited,Altium Designer,21.7.2 (23)*
G04*
G04 Layer_Physical_Order=2*
G04 Layer_Color=16711680*
%FSLAX25Y25*%
%MOIN*%
G70*
G04*
G04 #@! TF.SameCoordinates,9BAFE8C0-FE94-48CB-A9BC-8C9B0489C5DE*
G04*
G04*
G04 #@! TF.FilePolarity,Positive*
G04*
G01*
G75*
%ADD15C,0.01968*%
%ADD16C,0.01181*%
%ADD115C,0.09843*%
%ADD116C,0.05543*%
%ADD117R,0.05543X0.05543*%
G04:AMPARAMS|DCode=118|XSize=236.22mil|YSize=354.33mil|CornerRadius=0mil|HoleSize=0mil|Usage=FLASHONLY|Rotation=284.000|XOffset=0mil|YOffset=0mil|HoleType=Round|Shape=Round|*
%AMOVALD118*
21,1,0.11811,0.23622,0.00000,0.00000,14.0*
1,1,0.23622,-0.05730,-0.01429*
1,1,0.23622,0.05730,0.01429*
%
%ADD118OVALD118*%

%ADD119C,0.25197*%
%ADD120C,0.39370*%
%ADD121R,0.05020X0.05020*%
%ADD122C,0.05020*%
%ADD123C,0.04331*%
%ADD124R,0.04331X0.04331*%
%ADD125C,0.15748*%
G04:AMPARAMS|DCode=126|XSize=551.18mil|YSize=236.22mil|CornerRadius=0mil|HoleSize=0mil|Usage=FLASHONLY|Rotation=194.000|XOffset=0mil|YOffset=0mil|HoleType=Round|Shape=Round|*
%AMOVALD126*
21,1,0.31496,0.23622,0.00000,0.00000,194.0*
1,1,0.23622,0.15280,0.03810*
1,1,0.23622,-0.15280,-0.03810*
%
%ADD126OVALD126*%

%ADD127C,0.62992*%
%ADD128R,0.05906X0.05906*%
%ADD129C,0.05906*%
%ADD130C,0.09055*%
%ADD131C,0.01968*%
G36*
X272638Y400148D02*
Y384842D01*
X235642Y347846D01*
X235052Y347964D01*
X235028Y348021D01*
X234646Y348179D01*
X225197Y348179D01*
X225197Y348179D01*
X224814Y348021D01*
X224814Y348021D01*
X213555Y336762D01*
X198096D01*
X197889Y337262D01*
X202361Y341733D01*
X202361Y341734D01*
X202602Y342094D01*
X202687Y342520D01*
Y351520D01*
X202707Y351565D01*
X202726Y352676D01*
X203257Y353207D01*
X203559Y353936D01*
Y354725D01*
X203257Y355455D01*
X202699Y356013D01*
X201970Y356315D01*
X201180D01*
X200451Y356013D01*
X199893Y355455D01*
X199591Y354725D01*
Y353936D01*
X199893Y353207D01*
X200384Y352716D01*
X200444Y351547D01*
X200463Y351507D01*
Y342980D01*
X196252Y338770D01*
X187911D01*
X187689Y339270D01*
X187942Y339881D01*
Y340512D01*
X188724Y341331D01*
X188742Y341377D01*
X192738Y345373D01*
X192777Y345386D01*
X192784Y345400D01*
X192799Y345406D01*
X193600Y346177D01*
X193630Y346165D01*
X194419D01*
X195148Y346467D01*
X195706Y347026D01*
X196009Y347755D01*
Y348544D01*
X195706Y349274D01*
X195148Y349832D01*
X194419Y350134D01*
X193630D01*
X192900Y349832D01*
X192342Y349274D01*
X192040Y348544D01*
Y347897D01*
X191256Y347063D01*
X191239Y347019D01*
X187274Y343053D01*
X187239Y343043D01*
X187228Y343023D01*
X187207Y343015D01*
X186399Y342240D01*
X186352Y342260D01*
X185563D01*
X184834Y341958D01*
X184763Y341887D01*
X184301Y342078D01*
Y349229D01*
X184321Y349276D01*
X184325Y350378D01*
X184771Y350824D01*
X185073Y351554D01*
Y352343D01*
X184771Y353073D01*
X184213Y353631D01*
X183484Y353933D01*
X182695D01*
X181965Y353631D01*
X181407Y353073D01*
X181105Y352343D01*
Y351983D01*
X180745Y351590D01*
X179956D01*
X179227Y351289D01*
X178668Y350730D01*
X178366Y350001D01*
Y349212D01*
X178668Y348482D01*
X179227Y347924D01*
X179597Y347771D01*
Y342575D01*
X179577Y342529D01*
X179557Y341419D01*
X179026Y340888D01*
X178724Y340159D01*
Y339369D01*
X179026Y338640D01*
X179585Y338082D01*
X180314Y337779D01*
X180436D01*
X180627Y337318D01*
X168505Y325196D01*
X168264Y324835D01*
X168179Y324410D01*
X168179Y324409D01*
Y298863D01*
X168160Y298818D01*
X168140Y297707D01*
X167609Y297177D01*
X167307Y296447D01*
Y295658D01*
X167609Y294929D01*
X168167Y294370D01*
X168897Y294068D01*
X169686D01*
X170415Y294370D01*
X170612Y294567D01*
X171112Y294360D01*
Y283547D01*
X170612Y283340D01*
X170219Y283734D01*
X169819Y283899D01*
X162746Y290972D01*
Y313779D01*
X162746Y313779D01*
X162669Y313966D01*
Y314245D01*
X162366Y314974D01*
X161808Y315532D01*
X161079Y315834D01*
X160290D01*
X159566Y315534D01*
X158842Y315834D01*
X158053D01*
X157329Y315534D01*
X156605Y315834D01*
X155815D01*
X155086Y315532D01*
X154528Y314974D01*
X154226Y314245D01*
Y313455D01*
X154528Y312726D01*
X154577Y312677D01*
Y312598D01*
X154735Y312216D01*
X155335Y311616D01*
Y311487D01*
X155638Y310757D01*
X156196Y310199D01*
X156925Y309897D01*
X157054D01*
X157136Y309815D01*
Y288976D01*
X157294Y288594D01*
X162057Y283831D01*
X162057Y267153D01*
X138190Y243286D01*
X138037Y243223D01*
X137479Y242665D01*
X137415Y242511D01*
X135828Y240924D01*
X135675Y240861D01*
X135116Y240302D01*
X135053Y240149D01*
X133466Y238562D01*
X133312Y238498D01*
X132754Y237940D01*
X132691Y237787D01*
X131104Y236200D01*
X130950Y236136D01*
X130392Y235578D01*
X130090Y234849D01*
Y234059D01*
X130392Y233330D01*
X130950Y232772D01*
X131679Y232470D01*
X131725D01*
X132452Y231743D01*
Y231697D01*
X132754Y230968D01*
X133312Y230410D01*
X134042Y230108D01*
X134831D01*
X134976Y230168D01*
X136259D01*
X136404Y230108D01*
X137193D01*
X137338Y230168D01*
X138622D01*
X138766Y230108D01*
X139555D01*
X139700Y230168D01*
X140984D01*
X141128Y230108D01*
X141731D01*
X141947Y229620D01*
X140794Y228494D01*
X130281Y228494D01*
Y228707D01*
X123262D01*
Y221687D01*
X123262D01*
X123474Y221260D01*
X123633Y220877D01*
X127543Y216967D01*
Y216928D01*
X127845Y216199D01*
X128404Y215641D01*
X129133Y215339D01*
X129922D01*
X130512Y215583D01*
X131101Y215339D01*
X131891D01*
X132480Y215583D01*
X133070Y215339D01*
X133859D01*
X134449Y215583D01*
X135038Y215339D01*
X135828D01*
X136417Y215583D01*
X137007Y215339D01*
X137796D01*
X138386Y215583D01*
X138975Y215339D01*
X139765D01*
X140354Y215583D01*
X140944Y215339D01*
X141733D01*
X142323Y215583D01*
X142912Y215339D01*
X143702D01*
X144334Y215600D01*
X145669D01*
X145669Y215600D01*
X146052Y215759D01*
X146052Y215759D01*
X181349Y251056D01*
X181849Y250864D01*
Y248774D01*
X181829Y248727D01*
X181821Y247620D01*
X181389Y247187D01*
X181087Y246458D01*
Y245668D01*
X181389Y244939D01*
X181947Y244381D01*
X182676Y244079D01*
X183466D01*
X184195Y244381D01*
X184753Y244939D01*
X185055Y245668D01*
Y246458D01*
X184753Y247187D01*
X184195Y247745D01*
X184142Y247767D01*
X184095Y248540D01*
X184093Y248893D01*
X184078Y248929D01*
X184088Y248966D01*
X184073Y248991D01*
Y253037D01*
X184573Y253244D01*
X242137Y195680D01*
X242520Y195522D01*
X242520Y195522D01*
X286614D01*
X286997Y195680D01*
X295105Y203788D01*
X352800Y219557D01*
X352911Y219642D01*
X353040Y219696D01*
X356769Y223425D01*
X366142D01*
X385555Y204012D01*
X385558Y204007D01*
X386757Y202386D01*
X388195Y200973D01*
X389587Y199980D01*
X393504Y196063D01*
X423244Y203498D01*
X423672Y203239D01*
X436949Y148651D01*
X436959Y148632D01*
X436960Y148610D01*
X437033Y148340D01*
X437144Y147793D01*
X437218Y147239D01*
X437255Y146682D01*
X437255Y146402D01*
Y145715D01*
X437031Y144358D01*
X436591Y143055D01*
X435945Y141842D01*
X435110Y140749D01*
X434109Y139806D01*
X432968Y139039D01*
X431718Y138466D01*
X431076Y138291D01*
X359446Y120869D01*
X304134Y176181D01*
X259842D01*
X234252Y150591D01*
X163386D01*
X139764Y126969D01*
X139764Y77563D01*
Y76591D01*
Y67439D01*
X74401Y51541D01*
X74264Y52022D01*
X75299Y52359D01*
X77206Y53330D01*
X78938Y54588D01*
X80451Y56102D01*
X81709Y57833D01*
X82681Y59741D01*
X83342Y61776D01*
X83677Y63890D01*
Y66031D01*
X83342Y68145D01*
X82681Y70181D01*
X81709Y72088D01*
X80451Y73819D01*
X78938Y75333D01*
X77206Y76591D01*
X75299Y77563D01*
X73263Y78224D01*
X71149Y78559D01*
X69008D01*
X66894Y78224D01*
X64859Y77563D01*
X62952Y76591D01*
X61220Y75333D01*
X59706Y73819D01*
X58448Y72088D01*
X57477Y70181D01*
X56815Y68145D01*
X56722Y67558D01*
X56222Y67598D01*
X56222Y388976D01*
X56222Y389712D01*
X56410Y391171D01*
X56782Y392594D01*
X57332Y393958D01*
X58051Y395241D01*
X58928Y396421D01*
X59949Y397481D01*
X61096Y398401D01*
X62351Y399168D01*
X63694Y399769D01*
X65102Y400194D01*
X66553Y400435D01*
X67288Y400463D01*
X67316Y400469D01*
X105512Y400476D01*
X105703Y400014D01*
X105643Y399954D01*
X105147Y399094D01*
X104890Y398134D01*
Y397141D01*
X105147Y396182D01*
X105643Y395322D01*
X106346Y394620D01*
X107206Y394123D01*
X108165Y393866D01*
X109158D01*
X110117Y394123D01*
X110977Y394620D01*
X111679Y395322D01*
X112176Y396182D01*
X112433Y397141D01*
Y398134D01*
X112176Y399094D01*
X111679Y399954D01*
X111618Y400015D01*
X111810Y400477D01*
X137932Y400481D01*
X138123Y400019D01*
X138058Y399954D01*
X137562Y399094D01*
X137304Y398134D01*
Y397141D01*
X137562Y396182D01*
X138058Y395322D01*
X138760Y394620D01*
X139620Y394123D01*
X140579Y393866D01*
X141573D01*
X142532Y394123D01*
X143392Y394620D01*
X144094Y395322D01*
X144591Y396182D01*
X144848Y397141D01*
Y398134D01*
X144591Y399094D01*
X144094Y399954D01*
X144028Y400020D01*
X144220Y400482D01*
X164182Y400485D01*
X164374Y400023D01*
X164305Y399954D01*
X163808Y399094D01*
X163551Y398134D01*
Y397141D01*
X163808Y396182D01*
X164305Y395322D01*
X165007Y394620D01*
X165867Y394123D01*
X166826Y393866D01*
X167819D01*
X168779Y394123D01*
X169639Y394620D01*
X170341Y395322D01*
X170837Y396182D01*
X171095Y397141D01*
Y398134D01*
X170837Y399094D01*
X170341Y399954D01*
X170271Y400024D01*
X170462Y400486D01*
X198780Y400490D01*
X198987Y399990D01*
X198557Y399560D01*
X198060Y398700D01*
X197803Y397741D01*
Y396748D01*
X198060Y395788D01*
X198557Y394928D01*
X199259Y394226D01*
X200119Y393729D01*
X201078Y393472D01*
X202071D01*
X203031Y393729D01*
X203891Y394226D01*
X204593Y394928D01*
X205089Y395788D01*
X205346Y396748D01*
Y397741D01*
X205089Y398700D01*
X204593Y399560D01*
X204162Y399991D01*
X204369Y400491D01*
X272284Y400502D01*
X272638Y400148D01*
D02*
G37*
G36*
X202251Y353595D02*
X202233Y353519D01*
X202217Y353405D01*
X202192Y353067D01*
X202165Y351575D01*
X200984D01*
X200878Y353635D01*
X202271D01*
X202251Y353595D01*
D02*
G37*
G36*
X183804Y351252D02*
X183799Y351187D01*
X183784Y350542D01*
X183780Y349278D01*
X182598Y349127D01*
X182597Y349496D01*
X182509Y350969D01*
X182482Y351092D01*
X182451Y351179D01*
X182416Y351230D01*
X183809Y351277D01*
X183804Y351252D01*
D02*
G37*
G36*
X194006Y347165D02*
X193952Y347152D01*
X193876Y347112D01*
X193776Y347044D01*
X193652Y346948D01*
X193336Y346674D01*
X192424Y345796D01*
X191650Y346693D01*
X193040Y348170D01*
X194006Y347165D01*
D02*
G37*
G36*
X181405Y340459D02*
X180012D01*
X180032Y340499D01*
X180050Y340576D01*
X180066Y340689D01*
X180092Y341027D01*
X180118Y342520D01*
X181299D01*
X181405Y340459D01*
D02*
G37*
G36*
X188333Y341705D02*
X186941Y340248D01*
X185983Y341260D01*
X186040Y341272D01*
X186120Y341312D01*
X186223Y341380D01*
X186348Y341475D01*
X186668Y341748D01*
X187582Y342624D01*
X188333Y341705D01*
D02*
G37*
G36*
X320472Y340945D02*
Y340158D01*
X319685Y339370D01*
X318898D01*
X313386Y344882D01*
Y345669D01*
X314173Y346457D01*
X314961D01*
X320472Y340945D01*
D02*
G37*
G36*
X234646Y347638D02*
Y346063D01*
X216929Y328346D01*
X203101D01*
X202994Y328454D01*
X202265Y328756D01*
X201475D01*
X200886Y328512D01*
X200296Y328756D01*
X199507D01*
X198778Y328454D01*
X198670Y328346D01*
X194095D01*
X181102Y315354D01*
X181102Y251575D01*
X145669Y216142D01*
X129134Y216142D01*
X124016Y221260D01*
Y227559D01*
X124409Y227953D01*
X141015Y227953D01*
X171653Y257868D01*
Y258699D01*
X171801Y259055D01*
X171801Y259055D01*
Y281693D01*
X171801Y281693D01*
X171689Y281963D01*
X171653Y282049D01*
X171653Y318898D01*
X188976Y336221D01*
X213779D01*
X225197Y347638D01*
X234646Y347638D01*
D02*
G37*
G36*
X178744Y328696D02*
X177362Y327165D01*
X176377Y328150D01*
X176420Y328163D01*
X176487Y328205D01*
X176578Y328274D01*
X176835Y328495D01*
X177909Y329532D01*
X178744Y328696D01*
D02*
G37*
G36*
X183965Y313693D02*
X183886Y313614D01*
X183816Y313505D01*
X183754Y313365D01*
X183701Y313195D01*
X183655Y312995D01*
X183618Y312764D01*
X183568Y312211D01*
X183552Y311538D01*
X182371Y311606D01*
X182572Y313889D01*
X183965Y313693D01*
D02*
G37*
G36*
X174394Y327232D02*
Y326771D01*
X174696Y326041D01*
X175254Y325483D01*
X175983Y325181D01*
X176464D01*
X176672Y324681D01*
X171271Y319280D01*
X171112Y318898D01*
X171112Y318898D01*
X171112Y298199D01*
X170612Y297924D01*
X170464Y298018D01*
X170422Y298836D01*
X170403Y298876D01*
Y323949D01*
X173894Y327439D01*
X174394Y327232D01*
D02*
G37*
G36*
X169988Y296748D02*
X168595D01*
X168615Y296788D01*
X168633Y296864D01*
X168649Y296978D01*
X168674Y297316D01*
X168701Y298808D01*
X169882D01*
X169988Y296748D01*
D02*
G37*
G36*
X328346Y280709D02*
Y279921D01*
X327559Y279134D01*
X326772D01*
X321260Y284646D01*
Y285433D01*
X322047Y286221D01*
X322835D01*
X328346Y280709D01*
D02*
G37*
G36*
X183554Y248522D02*
X183645Y247047D01*
X183673Y246924D01*
X183705Y246836D01*
X183741Y246783D01*
X182349Y246732D01*
X182353Y246756D01*
X182357Y246819D01*
X182371Y248723D01*
X183552Y248890D01*
X183554Y248522D01*
D02*
G37*
G36*
X162205Y313779D02*
Y290748D01*
X171260Y281693D01*
Y259055D01*
X142913Y230709D01*
X134252D01*
X131102Y233858D01*
Y235433D01*
X162598Y266929D01*
X162598Y284055D01*
X157677Y288976D01*
Y310039D01*
X156299Y311417D01*
X155118Y312598D01*
Y314173D01*
X155906Y314961D01*
X161023D01*
X162205Y313779D01*
D02*
G37*
G36*
X203195Y327120D02*
X203195Y318550D01*
X196063Y311417D01*
Y258661D01*
X248120Y206605D01*
X278652D01*
X308402Y236354D01*
X346347Y246369D01*
X356496Y236221D01*
X356496Y223917D01*
X352658Y220079D01*
X294824Y204272D01*
X286614Y196063D01*
X242520D01*
X184646Y253937D01*
Y312948D01*
X185046Y313348D01*
X185078Y313424D01*
X199606Y327953D01*
X202362D01*
X203195Y327120D01*
D02*
G37*
%LPC*%
G36*
X80826Y394453D02*
X80036D01*
X79307Y394151D01*
X78749Y393593D01*
X78447Y392864D01*
Y392450D01*
X76039D01*
X75994Y392470D01*
X74883Y392490D01*
X74352Y393021D01*
X73623Y393323D01*
X72834D01*
X72104Y393021D01*
X71546Y392463D01*
X71244Y391733D01*
Y390944D01*
X71546Y390215D01*
X72104Y389656D01*
X72834Y389354D01*
X73623D01*
X74352Y389656D01*
X74843Y390147D01*
X76012Y390208D01*
X76052Y390227D01*
X79300D01*
X79300Y390227D01*
X79726Y390311D01*
X80005Y390498D01*
X80036Y390485D01*
X80826D01*
X81555Y390787D01*
X82113Y391345D01*
X82415Y392074D01*
Y392864D01*
X82113Y393593D01*
X81555Y394151D01*
X80826Y394453D01*
D02*
G37*
G36*
X158093Y394016D02*
X156868D01*
X155666Y393777D01*
X154534Y393308D01*
X153515Y392627D01*
X152649Y391761D01*
X151968Y390742D01*
X151499Y389610D01*
X151260Y388408D01*
Y387183D01*
X151499Y385981D01*
X151968Y384849D01*
X152649Y383830D01*
X153515Y382963D01*
X154534Y382283D01*
X155666Y381814D01*
X156868Y381575D01*
X158093D01*
X159295Y381814D01*
X160427Y382283D01*
X161446Y382963D01*
X162312Y383830D01*
X162993Y384849D01*
X163462Y385981D01*
X163701Y387183D01*
Y388408D01*
X163462Y389610D01*
X162993Y390742D01*
X162312Y391761D01*
X161446Y392627D01*
X160427Y393308D01*
X159295Y393777D01*
X158093Y394016D01*
D02*
G37*
G36*
X131846Y394016D02*
X130621D01*
X129419Y393777D01*
X128287Y393308D01*
X127268Y392627D01*
X126402Y391761D01*
X125721Y390742D01*
X125252Y389610D01*
X125013Y388408D01*
Y387183D01*
X125252Y385981D01*
X125721Y384849D01*
X126402Y383830D01*
X127268Y382963D01*
X128287Y382283D01*
X129419Y381814D01*
X130621Y381575D01*
X131846D01*
X133048Y381814D01*
X134180Y382283D01*
X135199Y382963D01*
X136065Y383830D01*
X136746Y384849D01*
X137215Y385981D01*
X137454Y387183D01*
Y388408D01*
X137215Y389610D01*
X136746Y390742D01*
X136065Y391761D01*
X135199Y392627D01*
X134180Y393308D01*
X133048Y393777D01*
X131846Y394016D01*
D02*
G37*
G36*
X99432D02*
X98206D01*
X97004Y393777D01*
X95872Y393308D01*
X94854Y392627D01*
X93987Y391761D01*
X93306Y390742D01*
X92838Y389610D01*
X92598Y388408D01*
Y387183D01*
X92838Y385981D01*
X93306Y384849D01*
X93987Y383830D01*
X94854Y382963D01*
X95872Y382283D01*
X97004Y381814D01*
X98206Y381575D01*
X99432D01*
X100633Y381814D01*
X101765Y382283D01*
X102784Y382963D01*
X103651Y383830D01*
X104331Y384849D01*
X104800Y385981D01*
X105039Y387183D01*
Y388408D01*
X104800Y389610D01*
X104331Y390742D01*
X103651Y391761D01*
X102784Y392627D01*
X101765Y393308D01*
X100633Y393777D01*
X99432Y394016D01*
D02*
G37*
G36*
X192345Y393622D02*
X191120D01*
X189918Y393383D01*
X188786Y392914D01*
X187767Y392233D01*
X186900Y391367D01*
X186220Y390348D01*
X185751Y389216D01*
X185512Y388014D01*
Y386789D01*
X185751Y385587D01*
X186220Y384455D01*
X186900Y383436D01*
X187767Y382570D01*
X188786Y381889D01*
X189918Y381420D01*
X191120Y381181D01*
X192345D01*
X193547Y381420D01*
X194679Y381889D01*
X195698Y382570D01*
X196564Y383436D01*
X197245Y384455D01*
X197714Y385587D01*
X197953Y386789D01*
Y388014D01*
X197714Y389216D01*
X197245Y390348D01*
X196564Y391367D01*
X195698Y392233D01*
X194679Y392914D01*
X193547Y393383D01*
X192345Y393622D01*
D02*
G37*
G36*
X73754Y383099D02*
X72965D01*
X72235Y382797D01*
X71677Y382239D01*
X71375Y381509D01*
Y380720D01*
X71677Y379991D01*
X72235Y379433D01*
X72965Y379130D01*
X73754D01*
X74483Y379433D01*
X74974Y379924D01*
X76143Y379984D01*
X76183Y380003D01*
X84085D01*
X84657Y379431D01*
X84675Y379385D01*
X85446Y378585D01*
Y377835D01*
X85719Y377175D01*
X85525Y376676D01*
X82705D01*
X82660Y376695D01*
X81549Y376715D01*
X81018Y377246D01*
X80289Y377548D01*
X79500D01*
X78770Y377246D01*
X78212Y376688D01*
X77910Y375958D01*
Y375169D01*
X78212Y374440D01*
X78770Y373881D01*
X79500Y373579D01*
X80289D01*
X81018Y373881D01*
X81509Y374373D01*
X82678Y374433D01*
X82718Y374452D01*
X88291D01*
X88291Y374452D01*
X88716Y374536D01*
X89077Y374777D01*
X89291Y374991D01*
X89296D01*
X89296Y374991D01*
X89722Y375076D01*
X90083Y375317D01*
X90228Y375462D01*
X90274Y375481D01*
X91074Y376252D01*
X91824D01*
X92553Y376554D01*
X93112Y377112D01*
X93414Y377841D01*
Y378631D01*
X93112Y379360D01*
X92553Y379918D01*
X91824Y380221D01*
X91035D01*
X90306Y379918D01*
X89747Y379360D01*
X89699Y379244D01*
X89158D01*
X89113Y379353D01*
X88555Y379911D01*
X87825Y380213D01*
X87131D01*
X86262Y380997D01*
X86220Y381012D01*
X85331Y381901D01*
X84971Y382142D01*
X84545Y382227D01*
X84545Y382227D01*
X76170D01*
X76125Y382246D01*
X75014Y382266D01*
X74483Y382797D01*
X73754Y383099D01*
D02*
G37*
G36*
X171095Y381724D02*
X163551D01*
Y374181D01*
X171095D01*
Y381724D01*
D02*
G37*
G36*
X144848Y381724D02*
X137304D01*
Y374181D01*
X144848D01*
Y381724D01*
D02*
G37*
G36*
X112433D02*
X104890D01*
Y374181D01*
X112433D01*
Y381724D01*
D02*
G37*
G36*
X205346Y381331D02*
X197803D01*
Y373787D01*
X205346D01*
Y381331D01*
D02*
G37*
G36*
X102650Y353559D02*
X101860D01*
X101131Y353257D01*
X100728Y352853D01*
X100412Y352751D01*
X100096Y352853D01*
X99693Y353257D01*
X98963Y353559D01*
X98174D01*
X97445Y353257D01*
X97041Y352853D01*
X96725Y352751D01*
X96409Y352853D01*
X96006Y353257D01*
X95277Y353559D01*
X94487D01*
X93758Y353257D01*
X93354Y352853D01*
X93038Y352751D01*
X92723Y352853D01*
X92319Y353257D01*
X91590Y353559D01*
X90800D01*
X90071Y353257D01*
X89513Y352699D01*
X89211Y351970D01*
Y351180D01*
X89337Y350877D01*
X89249Y350767D01*
X88933Y350544D01*
X88308Y350803D01*
X87519D01*
X86789Y350501D01*
X86231Y349943D01*
X85929Y349214D01*
Y348424D01*
X86231Y347695D01*
X86722Y347204D01*
X86782Y346035D01*
X86801Y345995D01*
Y341787D01*
X86782Y341742D01*
X86762Y340631D01*
X86231Y340100D01*
X85929Y339371D01*
Y338582D01*
X86231Y337852D01*
X86789Y337294D01*
X87519Y336992D01*
X88308D01*
X89037Y337294D01*
X89596Y337852D01*
X89898Y338582D01*
Y339371D01*
X89848Y339490D01*
X90023Y339683D01*
X90252Y339823D01*
X90908Y339551D01*
X91697D01*
X92426Y339853D01*
X92830Y340257D01*
X93146Y340359D01*
X93462Y340257D01*
X93865Y339853D01*
X94594Y339551D01*
X95384D01*
X96113Y339853D01*
X96516Y340257D01*
X96832Y340359D01*
X97148Y340257D01*
X97552Y339853D01*
X98281Y339551D01*
X99070D01*
X99800Y339853D01*
X100203Y340257D01*
X100519Y340359D01*
X100835Y340257D01*
X101238Y339853D01*
X101968Y339551D01*
X102757D01*
X103486Y339853D01*
X104044Y340411D01*
X104347Y341141D01*
Y341930D01*
X104044Y342659D01*
X103486Y343218D01*
X103486Y343218D01*
X103442Y343975D01*
X103440Y344331D01*
X103433Y344348D01*
X103439Y344366D01*
X103421Y344403D01*
Y348812D01*
X103440Y348859D01*
X103446Y349859D01*
X103450Y349963D01*
X103937Y350451D01*
X104239Y351180D01*
Y351970D01*
X103937Y352699D01*
X103379Y353257D01*
X102650Y353559D01*
D02*
G37*
G36*
X211035Y350420D02*
X210246D01*
X209516Y350118D01*
X208958Y349560D01*
X208656Y348830D01*
Y348041D01*
X208958Y347312D01*
X209449Y346821D01*
X209509Y345652D01*
X209528Y345612D01*
Y340541D01*
X209528Y340541D01*
X209613Y340115D01*
X209835Y339784D01*
X209827Y339765D01*
Y338975D01*
X210129Y338246D01*
X210687Y337688D01*
X211416Y337386D01*
X212206D01*
X212935Y337688D01*
X213493Y338246D01*
X213795Y338975D01*
Y339765D01*
X213493Y340494D01*
X212935Y341052D01*
X212206Y341354D01*
X211752D01*
Y345625D01*
X211772Y345670D01*
X211792Y346781D01*
X212323Y347312D01*
X212625Y348041D01*
Y348830D01*
X212323Y349560D01*
X211764Y350118D01*
X211035Y350420D01*
D02*
G37*
G36*
X71543Y358087D02*
X69402D01*
X67288Y357752D01*
X65253Y357090D01*
X63345Y356119D01*
X61614Y354860D01*
X60100Y353347D01*
X58842Y351615D01*
X57870Y349708D01*
X57209Y347673D01*
X56874Y345558D01*
Y343418D01*
X57209Y341304D01*
X57870Y339268D01*
X58842Y337361D01*
X60100Y335629D01*
X61614Y334116D01*
X63345Y332858D01*
X65253Y331886D01*
X67288Y331225D01*
X69402Y330890D01*
X71543D01*
X73657Y331225D01*
X75692Y331886D01*
X77600Y332858D01*
X79331Y334116D01*
X80845Y335629D01*
X82103Y337361D01*
X83075Y339268D01*
X83736Y341304D01*
X84071Y343418D01*
Y345558D01*
X83736Y347673D01*
X83075Y349708D01*
X82103Y351615D01*
X80845Y353347D01*
X79331Y354860D01*
X77600Y356119D01*
X75692Y357090D01*
X73657Y357752D01*
X71543Y358087D01*
D02*
G37*
G36*
X85449Y294110D02*
X79118D01*
Y287779D01*
X85449D01*
Y294110D01*
D02*
G37*
G36*
X143540Y291122D02*
X142751D01*
X142021Y290820D01*
X141463Y290262D01*
X141161Y289533D01*
Y288743D01*
X141463Y288014D01*
X142021Y287456D01*
X142751Y287154D01*
X143445D01*
X144195Y286477D01*
X144669Y285986D01*
Y285236D01*
X144971Y284507D01*
X145529Y283948D01*
X146258Y283646D01*
X147048D01*
X147777Y283948D01*
X148335Y284507D01*
X148637Y285236D01*
Y286025D01*
X148335Y286754D01*
X147777Y287313D01*
X147048Y287615D01*
X146353D01*
X145603Y288291D01*
X145130Y288782D01*
Y289533D01*
X144827Y290262D01*
X144269Y290820D01*
X143540Y291122D01*
D02*
G37*
G36*
X117324Y263106D02*
X116534D01*
X115805Y262804D01*
X115247Y262246D01*
X114945Y261517D01*
Y260727D01*
X115247Y259998D01*
X115805Y259440D01*
X116534Y259138D01*
X117324D01*
X118053Y259440D01*
X118500Y259887D01*
X119634Y259914D01*
X119679Y259934D01*
X120731D01*
X120777Y259914D01*
X121888Y259897D01*
X122400Y259385D01*
X123129Y259083D01*
X123919D01*
X124648Y259385D01*
X125206Y259944D01*
X125508Y260673D01*
Y261462D01*
X125206Y262192D01*
X124648Y262750D01*
X123919Y263052D01*
X123129D01*
X122400Y262750D01*
X121874Y262224D01*
X121107Y262178D01*
X120750Y262177D01*
X120744Y262175D01*
X120737Y262177D01*
X120693Y262158D01*
X119822D01*
X119790Y262175D01*
X119769Y262168D01*
X119748Y262177D01*
X118630Y262200D01*
X118611Y262246D01*
X118053Y262804D01*
X117324Y263106D01*
D02*
G37*
G36*
X217914Y205724D02*
X217125D01*
X216396Y205422D01*
X215838Y204864D01*
X215535Y204135D01*
Y203345D01*
X215838Y202616D01*
X216396Y202058D01*
X217125Y201756D01*
X217819D01*
X218688Y200972D01*
X218730Y200957D01*
X228068Y191619D01*
Y191504D01*
X227648Y191085D01*
X227346Y190355D01*
Y189566D01*
X227648Y188837D01*
X228207Y188278D01*
X228936Y187976D01*
X229725D01*
X230455Y188278D01*
X231013Y188837D01*
X231315Y189566D01*
Y190355D01*
X231013Y191085D01*
X230455Y191643D01*
X230292Y191710D01*
Y192080D01*
X230292Y192080D01*
X230207Y192505D01*
X229966Y192866D01*
X220293Y202539D01*
X220275Y202585D01*
X219504Y203384D01*
Y204135D01*
X219202Y204864D01*
X218644Y205422D01*
X217914Y205724D01*
D02*
G37*
G36*
X103559Y149773D02*
X102769D01*
X102040Y149471D01*
X101517Y148948D01*
X100750Y148903D01*
X100393Y148902D01*
X100387Y148900D01*
X100382Y148902D01*
X100337Y148882D01*
X72517D01*
X72471Y148902D01*
X71360Y148919D01*
X70846Y149434D01*
X70116Y149736D01*
X69327D01*
X68598Y149434D01*
X68040Y148876D01*
X67737Y148146D01*
Y147357D01*
X68040Y146628D01*
X68598Y146070D01*
X69327Y145768D01*
X70116D01*
X70846Y146070D01*
X71369Y146593D01*
X72136Y146638D01*
X72493Y146639D01*
X72498Y146641D01*
X72504Y146639D01*
X72549Y146659D01*
X100369D01*
X100414Y146639D01*
X101525Y146622D01*
X102040Y146107D01*
X102769Y145805D01*
X103559D01*
X104288Y146107D01*
X104846Y146665D01*
X105148Y147394D01*
Y148184D01*
X104846Y148913D01*
X104288Y149471D01*
X103559Y149773D01*
D02*
G37*
G36*
X421543Y165173D02*
X419402D01*
X417288Y164838D01*
X415252Y164177D01*
X413345Y163205D01*
X411614Y161947D01*
X410100Y160434D01*
X408842Y158702D01*
X407870Y156795D01*
X407209Y154759D01*
X406874Y152645D01*
Y150505D01*
X407209Y148390D01*
X407870Y146355D01*
X408842Y144448D01*
X410100Y142716D01*
X411614Y141202D01*
X413345Y139944D01*
X415252Y138973D01*
X417288Y138311D01*
X419402Y137976D01*
X421543D01*
X423657Y138311D01*
X425692Y138973D01*
X427600Y139944D01*
X429331Y141202D01*
X430845Y142716D01*
X432103Y144448D01*
X433075Y146355D01*
X433736Y148390D01*
X434071Y150505D01*
Y152645D01*
X433736Y154759D01*
X433075Y156795D01*
X432103Y158702D01*
X430845Y160434D01*
X429331Y161947D01*
X427600Y163205D01*
X425692Y164177D01*
X423657Y164838D01*
X421543Y165173D01*
D02*
G37*
G36*
X115500Y117612D02*
X107370D01*
X105657Y115899D01*
Y107769D01*
X107626Y105800D01*
X115500Y105800D01*
X117469Y107769D01*
Y115643D01*
X115500Y117612D01*
D02*
G37*
%LPD*%
G36*
X73964Y392015D02*
X74040Y391997D01*
X74154Y391981D01*
X74492Y391956D01*
X75984Y391929D01*
Y390748D01*
X73924Y390642D01*
Y392035D01*
X73964Y392015D01*
D02*
G37*
G36*
X74094Y381791D02*
X74171Y381773D01*
X74285Y381757D01*
X74623Y381732D01*
X76115Y381705D01*
Y380524D01*
X74055Y380418D01*
Y381811D01*
X74094Y381791D01*
D02*
G37*
G36*
X87431Y379214D02*
X86446Y378229D01*
X86433Y378271D01*
X86391Y378338D01*
X86322Y378429D01*
X86101Y378686D01*
X85064Y379760D01*
X85900Y380596D01*
X87431Y379214D01*
D02*
G37*
G36*
X91430Y377252D02*
X91388Y377238D01*
X91321Y377197D01*
X91229Y377128D01*
X90972Y376906D01*
X89898Y375870D01*
X89063Y376705D01*
X90445Y378237D01*
X91430Y377252D01*
D02*
G37*
G36*
X80629Y376240D02*
X80706Y376222D01*
X80820Y376206D01*
X81158Y376181D01*
X82650Y376154D01*
Y374973D01*
X80590Y374867D01*
Y376260D01*
X80629Y376240D01*
D02*
G37*
G36*
X102952Y350860D02*
X102941Y350789D01*
X102931Y350681D01*
X102905Y349869D01*
X102899Y348862D01*
X101718Y348781D01*
X101717Y349152D01*
X101624Y350738D01*
X101599Y350820D01*
X101571Y350867D01*
X102964Y350892D01*
X102952Y350860D01*
D02*
G37*
G36*
X99265D02*
X99254Y350789D01*
X99244Y350681D01*
X99218Y349869D01*
X99213Y348862D01*
X98032Y348781D01*
X98030Y349152D01*
X97938Y350738D01*
X97913Y350820D01*
X97885Y350867D01*
X99278Y350892D01*
X99265Y350860D01*
D02*
G37*
G36*
X95579D02*
X95568Y350789D01*
X95558Y350681D01*
X95532Y349869D01*
X95526Y348862D01*
X94345Y348781D01*
X94343Y349152D01*
X94251Y350738D01*
X94226Y350820D01*
X94198Y350867D01*
X95591Y350892D01*
X95579Y350860D01*
D02*
G37*
G36*
X91892D02*
X91881Y350789D01*
X91871Y350681D01*
X91845Y349869D01*
X91839Y348862D01*
X90658Y348781D01*
X90657Y349152D01*
X90564Y350738D01*
X90539Y350820D01*
X90511Y350867D01*
X91904Y350892D01*
X91892Y350860D01*
D02*
G37*
G36*
X88590Y348084D02*
X88572Y348007D01*
X88556Y347893D01*
X88530Y347555D01*
X88504Y346063D01*
X87323D01*
X87217Y348123D01*
X88610D01*
X88590Y348084D01*
D02*
G37*
G36*
X102901Y343958D02*
X102993Y342372D01*
X103018Y342290D01*
X103046Y342243D01*
X101653Y342218D01*
X101665Y342251D01*
X101677Y342321D01*
X101686Y342429D01*
X101712Y343241D01*
X101718Y344248D01*
X102899Y344329D01*
X102901Y343958D01*
D02*
G37*
G36*
X99214D02*
X99306Y342372D01*
X99331Y342290D01*
X99359Y342243D01*
X97966Y342218D01*
X97979Y342251D01*
X97990Y342321D01*
X98000Y342429D01*
X98026Y343241D01*
X98032Y344248D01*
X99213Y344329D01*
X99214Y343958D01*
D02*
G37*
G36*
X95527D02*
X95620Y342372D01*
X95645Y342290D01*
X95673Y342243D01*
X94280Y342218D01*
X94292Y342251D01*
X94303Y342321D01*
X94313Y342429D01*
X94339Y343241D01*
X94345Y344248D01*
X95526Y344329D01*
X95527Y343958D01*
D02*
G37*
G36*
X91841D02*
X91933Y342372D01*
X91958Y342290D01*
X91986Y342243D01*
X90593Y342218D01*
X90605Y342251D01*
X90617Y342321D01*
X90626Y342429D01*
X90652Y343241D01*
X90658Y344248D01*
X91839Y344329D01*
X91841Y343958D01*
D02*
G37*
G36*
X88610Y339672D02*
X87217D01*
X87237Y339712D01*
X87255Y339788D01*
X87271Y339902D01*
X87296Y340240D01*
X87323Y341732D01*
X88504D01*
X88610Y339672D01*
D02*
G37*
G36*
X211317Y347701D02*
X211299Y347624D01*
X211283Y347510D01*
X211257Y347172D01*
X211231Y345680D01*
X210050D01*
X209944Y347740D01*
X211337D01*
X211317Y347701D01*
D02*
G37*
G36*
X144143Y289096D02*
X144185Y289030D01*
X144254Y288938D01*
X144475Y288681D01*
X145227Y287902D01*
X146654Y286615D01*
X145669Y285630D01*
X145655Y285672D01*
X145613Y285739D01*
X145544Y285831D01*
X145323Y286088D01*
X144571Y286867D01*
X143145Y288154D01*
X144130Y289139D01*
X144143Y289096D01*
D02*
G37*
G36*
X117691Y261769D02*
X117776Y261741D01*
X117896Y261717D01*
X118052Y261695D01*
X118471Y261662D01*
X119737Y261636D01*
X119621Y260455D01*
X117606Y260408D01*
X117642Y261801D01*
X117691Y261769D01*
D02*
G37*
G36*
X122834Y260366D02*
X122797Y260383D01*
X122723Y260398D01*
X122611Y260411D01*
X122276Y260433D01*
X120785Y260455D01*
X120752Y261636D01*
X121124Y261637D01*
X122781Y261736D01*
X122823Y261759D01*
X122834Y260366D01*
D02*
G37*
G36*
X218518Y203698D02*
X218559Y203632D01*
X218628Y203540D01*
X218849Y203283D01*
X219886Y202209D01*
X219051Y201374D01*
X217519Y202756D01*
X218504Y203741D01*
X218518Y203698D01*
D02*
G37*
G36*
X102473Y147088D02*
X102436Y147106D01*
X102361Y147121D01*
X102250Y147135D01*
X101914Y147157D01*
X100423Y147180D01*
X100395Y148361D01*
X100767Y148362D01*
X102422Y148458D01*
X102464Y148481D01*
X102473Y147088D01*
D02*
G37*
G36*
X70450Y148435D02*
X70525Y148420D01*
X70636Y148406D01*
X70972Y148384D01*
X72463Y148361D01*
X72491Y147180D01*
X72119Y147179D01*
X70464Y147083D01*
X70421Y147060D01*
X70413Y148453D01*
X70450Y148435D01*
D02*
G37*
D15*
X319646Y311327D02*
Y334606D01*
X319587Y311267D02*
X319646Y311327D01*
Y334606D02*
X319685Y334646D01*
X322441Y285039D02*
X322756Y285354D01*
X319243Y340305D02*
X322756Y336792D01*
Y285354D02*
Y336792D01*
X317670Y342080D02*
X319245Y340505D01*
X316095Y343233D02*
X317249Y342080D01*
X316095Y343233D02*
Y343655D01*
X317249Y342080D02*
X317670D01*
X314521Y345229D02*
X316095Y343655D01*
X319243Y340305D02*
Y340503D01*
D16*
X217520Y203740D02*
X229180Y192080D01*
Y190111D02*
Y192080D01*
Y190111D02*
X229331Y189961D01*
X182961Y246173D02*
Y313856D01*
Y246173D02*
X183071Y246063D01*
X182961Y313856D02*
X183364Y314259D01*
X143145Y289138D02*
X146653Y285630D01*
Y285630D02*
Y285630D01*
X183364Y314259D02*
Y314472D01*
X87913Y338976D02*
Y348819D01*
X102309Y341589D02*
Y351521D01*
Y341589D02*
X102362Y341535D01*
X102255Y351575D02*
X102309Y351521D01*
X98622Y341589D02*
Y351521D01*
X98569Y351575D02*
X98622Y351521D01*
Y341589D02*
X98676Y341535D01*
X94935Y341589D02*
Y351521D01*
X94882Y351575D02*
X94935Y351521D01*
Y341589D02*
X94989Y341535D01*
X91249Y341589D02*
X91302Y341535D01*
X91195Y351575D02*
X91249Y351521D01*
Y341589D02*
Y351521D01*
X69722Y147752D02*
X69740Y147771D01*
X103146D01*
X103164Y147789D01*
X180501Y348863D02*
Y349456D01*
X180709Y339764D02*
Y348656D01*
X180501Y348863D02*
X180709Y348656D01*
X180351Y349606D02*
X180501Y349456D01*
X183089Y351948D02*
X183189Y351849D01*
Y338307D02*
Y351849D01*
X201575Y342520D02*
Y354331D01*
X196713Y337658D02*
X201575Y342520D01*
X210640Y340541D02*
Y348436D01*
Y340541D02*
X211811Y339370D01*
X79300Y391339D02*
X80431Y392469D01*
X73228Y391339D02*
X79300D01*
X88830Y376103D02*
X89296D01*
X88291Y375564D02*
X88830Y376103D01*
X89296D02*
X91430Y378236D01*
X84545Y381115D02*
X87431Y378229D01*
X73359Y381115D02*
X84545D01*
X79894Y375564D02*
X88291D01*
X169291Y324410D02*
X183189Y338307D01*
X186068Y340276D02*
X193942Y348150D01*
X194024D01*
X169291Y296053D02*
Y324410D01*
X185958Y340276D02*
X186068D01*
X186871Y337658D02*
X196713D01*
X176378Y327165D02*
X186871Y337658D01*
X116535Y261024D02*
X116557Y261046D01*
X123502D01*
X123524Y261068D01*
D115*
X191732Y387402D02*
D03*
X98819Y387795D02*
D03*
X157480Y387795D02*
D03*
X131234Y387795D02*
D03*
D116*
X201575Y397244D02*
D03*
X181890Y387402D02*
D03*
X88976Y387795D02*
D03*
X108661Y397638D02*
D03*
X147638Y387795D02*
D03*
X167323Y397638D02*
D03*
X121391Y387795D02*
D03*
X141076Y397638D02*
D03*
D117*
X201575Y377559D02*
D03*
X108661Y377953D02*
D03*
X167323Y377953D02*
D03*
X141076Y377953D02*
D03*
D118*
X402186Y212245D02*
D03*
X408661Y184646D02*
D03*
D119*
X309055Y385433D02*
D03*
X70472Y344488D02*
D03*
X420472Y151575D02*
D03*
X70079Y64961D02*
D03*
D120*
X226378Y379528D02*
D03*
D121*
X126772Y225197D02*
D03*
D122*
X116929D02*
D03*
D123*
X82284Y298819D02*
D03*
D124*
Y290945D02*
D03*
D125*
X393027Y253723D02*
D03*
X378740Y311024D02*
D03*
D126*
X328274Y227431D02*
D03*
X335512Y198398D02*
D03*
D127*
X287253Y138082D02*
D03*
X259632Y248863D02*
D03*
D128*
X111601Y111923D02*
D03*
D129*
Y82395D02*
D03*
D130*
X250630Y299764D02*
D03*
X260630D02*
D03*
X270630D02*
D03*
X280630Y299764D02*
D03*
X290630Y299764D02*
D03*
X250630Y309764D02*
D03*
X260630D02*
D03*
X270630D02*
D03*
X280630D02*
D03*
X290630D02*
D03*
X250630Y319764D02*
D03*
X260630D02*
D03*
X270630Y319764D02*
D03*
X280630Y319764D02*
D03*
X290630D02*
D03*
X250630Y329764D02*
D03*
X260630D02*
D03*
X270630D02*
D03*
X280630D02*
D03*
X290630D02*
D03*
X250630Y339764D02*
D03*
X260630D02*
D03*
X270630Y339764D02*
D03*
X280630Y339764D02*
D03*
X290630D02*
D03*
X179806Y83909D02*
D03*
X189509Y86329D02*
D03*
X199212Y88748D02*
D03*
X208915Y91167D02*
D03*
X218618Y93586D02*
D03*
X177387Y93612D02*
D03*
X187090Y96031D02*
D03*
X196793Y98451D02*
D03*
X206496Y100870D02*
D03*
X216199Y103289D02*
D03*
X174968Y103315D02*
D03*
X184671Y105735D02*
D03*
X194374Y108154D02*
D03*
X204077Y110573D02*
D03*
X213779Y112992D02*
D03*
X172548Y113018D02*
D03*
X182251Y115437D02*
D03*
X191954Y117857D02*
D03*
X201657Y120276D02*
D03*
X211360Y122695D02*
D03*
X170129Y122721D02*
D03*
X179832Y125140D02*
D03*
X189535Y127560D02*
D03*
X199238Y129979D02*
D03*
X208941Y132398D02*
D03*
D131*
X136799Y232092D02*
D03*
X132074Y234454D02*
D03*
X134436Y236816D02*
D03*
X136799Y234454D02*
D03*
X139161Y232092D02*
D03*
X134436Y234454D02*
D03*
X136799Y236816D02*
D03*
X229331Y189961D02*
D03*
X201969Y318898D02*
D03*
X319587Y311267D02*
D03*
X120229Y350243D02*
D03*
X147789Y376818D02*
D03*
X120229Y377802D02*
D03*
X133980Y373955D02*
D03*
X133025Y350243D02*
D03*
X232434Y355164D02*
D03*
X211765Y357133D02*
D03*
X166489Y340401D02*
D03*
X174363Y359101D02*
D03*
X169096Y350821D02*
D03*
X154945Y356638D02*
D03*
X147789Y349259D02*
D03*
X59206Y122881D02*
D03*
X67648Y143697D02*
D03*
X59206Y132723D02*
D03*
X59055Y147638D02*
D03*
X102362Y341535D02*
D03*
X152710Y289219D02*
D03*
X155663D02*
D03*
X169442Y290204D02*
D03*
X113150Y159393D02*
D03*
X111181Y157425D02*
D03*
Y159393D02*
D03*
X109213D02*
D03*
X115118Y157425D02*
D03*
X117126Y157480D02*
D03*
X121020Y131260D02*
D03*
X122989D02*
D03*
Y133229D02*
D03*
X122989Y137165D02*
D03*
X121020Y137165D02*
D03*
X122989Y135197D02*
D03*
X121020D02*
D03*
Y133229D02*
D03*
X119134Y129288D02*
D03*
Y131256D02*
D03*
X117165D02*
D03*
X111260Y129288D02*
D03*
X113228Y131256D02*
D03*
X113228Y129288D02*
D03*
X115197Y131256D02*
D03*
Y129288D02*
D03*
X117165D02*
D03*
X111260Y131256D02*
D03*
X109295Y137244D02*
D03*
X107326D02*
D03*
Y135275D02*
D03*
X109295Y129370D02*
D03*
X107326Y131338D02*
D03*
X109295Y131338D02*
D03*
X107326Y133307D02*
D03*
X109295D02*
D03*
Y135275D02*
D03*
X107326Y129370D02*
D03*
X109295Y139216D02*
D03*
X107326D02*
D03*
X124981Y139158D02*
D03*
X126949D02*
D03*
X124981Y137186D02*
D03*
X126949D02*
D03*
X124981Y133249D02*
D03*
X126949Y135217D02*
D03*
X128918Y137186D02*
D03*
X124981Y135217D02*
D03*
X128918Y139158D02*
D03*
X121020D02*
D03*
X122989D02*
D03*
X121020Y129288D02*
D03*
X72047Y179527D02*
D03*
X81893Y173704D02*
D03*
X77953Y181496D02*
D03*
X72047Y177559D02*
D03*
X74019Y173704D02*
D03*
X79925Y175672D02*
D03*
X80007Y181574D02*
D03*
X74019Y175672D02*
D03*
X77956D02*
D03*
X81893Y175672D02*
D03*
X72047Y175672D02*
D03*
X80007Y179606D02*
D03*
Y177637D02*
D03*
X75984Y181496D02*
D03*
X81975Y181574D02*
D03*
X74016Y179527D02*
D03*
X113150Y151322D02*
D03*
X119055Y149354D02*
D03*
Y153291D02*
D03*
X113150Y149354D02*
D03*
X111181D02*
D03*
Y151322D02*
D03*
Y153291D02*
D03*
X113150D02*
D03*
X115118Y149354D02*
D03*
Y151322D02*
D03*
Y153291D02*
D03*
X117087D02*
D03*
Y151322D02*
D03*
Y149354D02*
D03*
X119055Y151322D02*
D03*
Y145417D02*
D03*
X113150Y147385D02*
D03*
X115118D02*
D03*
Y145417D02*
D03*
X117087Y147385D02*
D03*
Y155358D02*
D03*
X117087Y145417D02*
D03*
X119055Y147385D02*
D03*
Y155358D02*
D03*
X113150D02*
D03*
Y145417D02*
D03*
X115118Y155358D02*
D03*
X111181Y145417D02*
D03*
Y147385D02*
D03*
X111181Y155358D02*
D03*
X113150Y139216D02*
D03*
X119055Y137247D02*
D03*
Y141184D02*
D03*
X113150Y137247D02*
D03*
X111181D02*
D03*
Y139216D02*
D03*
Y141184D02*
D03*
X113150D02*
D03*
X115118Y137247D02*
D03*
Y139216D02*
D03*
Y141184D02*
D03*
X117087D02*
D03*
Y139216D02*
D03*
Y137247D02*
D03*
X119055Y139216D02*
D03*
Y133310D02*
D03*
X113150Y135279D02*
D03*
X115118D02*
D03*
Y133310D02*
D03*
X117087Y135279D02*
D03*
Y143251D02*
D03*
X117087Y133310D02*
D03*
X119055Y135279D02*
D03*
Y143251D02*
D03*
X113150D02*
D03*
Y133310D02*
D03*
X115118Y143251D02*
D03*
X111181Y133310D02*
D03*
Y135279D02*
D03*
X111181Y143251D02*
D03*
X109213Y157425D02*
D03*
X115118Y159393D02*
D03*
X113150Y157425D02*
D03*
X201969Y320866D02*
D03*
X200000Y318898D02*
D03*
Y320866D02*
D03*
X198031D02*
D03*
X201870Y326772D02*
D03*
X197933Y324803D02*
D03*
X201969Y322835D02*
D03*
X200000D02*
D03*
X198031D02*
D03*
X196063D02*
D03*
X199902Y324803D02*
D03*
Y326772D02*
D03*
X201969Y324803D02*
D03*
X195965Y320866D02*
D03*
X193996D02*
D03*
X195965Y318898D02*
D03*
X197933D02*
D03*
X193996D02*
D03*
X192027D02*
D03*
X324016Y283465D02*
D03*
X224318Y344439D02*
D03*
X317670Y342080D02*
D03*
X314521Y345229D02*
D03*
X316095Y343655D02*
D03*
X319245Y340505D02*
D03*
X169291Y296053D02*
D03*
X183364Y314472D02*
D03*
X176378Y327165D02*
D03*
X231417Y344488D02*
D03*
X226693Y339764D02*
D03*
X224331Y337402D02*
D03*
X229055Y342126D02*
D03*
X185958Y340276D02*
D03*
X180709Y339764D02*
D03*
X194024Y348150D02*
D03*
X87913Y338976D02*
D03*
X102255Y351575D02*
D03*
X98569D02*
D03*
X91195D02*
D03*
X94882D02*
D03*
X73359Y381115D02*
D03*
X79894Y375564D02*
D03*
X87431Y378229D02*
D03*
X91430Y378236D02*
D03*
X73228Y391339D02*
D03*
X80431Y392469D02*
D03*
X87913Y348819D02*
D03*
X319685Y334646D02*
D03*
X211811Y339370D02*
D03*
X210640Y348436D02*
D03*
X201575Y354331D02*
D03*
X183089Y351948D02*
D03*
X180351Y349606D02*
D03*
X103164Y147789D02*
D03*
X69722Y147752D02*
D03*
X134436Y232092D02*
D03*
X146653Y285630D02*
D03*
X167224Y272539D02*
D03*
X169095Y271457D02*
D03*
X167224Y274670D02*
D03*
X169095Y275752D02*
D03*
X167224Y276835D02*
D03*
X169095Y277918D02*
D03*
X167224Y279000D02*
D03*
X169095Y279985D02*
D03*
X167224Y281067D02*
D03*
X169095Y282052D02*
D03*
X167224Y283134D02*
D03*
X169095Y273686D02*
D03*
X156210Y313850D02*
D03*
X158447D02*
D03*
X160684D02*
D03*
X159557Y311881D02*
D03*
X157320D02*
D03*
X68114Y165830D02*
D03*
X68196Y169763D02*
D03*
Y167795D02*
D03*
X66145Y173704D02*
D03*
X64173Y171653D02*
D03*
X64177Y165830D02*
D03*
X66142Y171653D02*
D03*
X68114Y163861D02*
D03*
X64177Y163861D02*
D03*
X66142Y167717D02*
D03*
X62205Y171653D02*
D03*
X62208Y165830D02*
D03*
Y163861D02*
D03*
X68196Y171732D02*
D03*
X60236Y165830D02*
D03*
X64173Y167717D02*
D03*
X60236Y169685D02*
D03*
Y167717D02*
D03*
Y173704D02*
D03*
X64173Y169685D02*
D03*
X62208Y173704D02*
D03*
X60236Y163861D02*
D03*
X66145Y165830D02*
D03*
X60236Y171653D02*
D03*
X68114Y173704D02*
D03*
X66145Y163861D02*
D03*
X62205Y167717D02*
D03*
Y169685D02*
D03*
X66142D02*
D03*
X64177Y173704D02*
D03*
X116929Y261122D02*
D03*
X229071Y344433D02*
D03*
X322441Y285039D02*
D03*
X325590Y281890D02*
D03*
X327165Y280315D02*
D03*
X60236Y175672D02*
D03*
X70082Y175672D02*
D03*
X66145Y175672D02*
D03*
X62208D02*
D03*
X68196Y181574D02*
D03*
X68114Y175672D02*
D03*
X60236Y177559D02*
D03*
X66142Y181496D02*
D03*
X70082Y173704D02*
D03*
X60236Y179527D02*
D03*
X133465Y223228D02*
D03*
Y217323D02*
D03*
X129528D02*
D03*
X133465Y219291D02*
D03*
X129528D02*
D03*
X131496Y217323D02*
D03*
Y221260D02*
D03*
Y219291D02*
D03*
X137402Y217323D02*
D03*
X139370D02*
D03*
X135433D02*
D03*
Y219291D02*
D03*
X139370D02*
D03*
X143307Y217323D02*
D03*
X135433Y221260D02*
D03*
Y223228D02*
D03*
X141339Y217323D02*
D03*
Y219291D02*
D03*
X137402Y221260D02*
D03*
X139370D02*
D03*
X141339D02*
D03*
X139370Y223228D02*
D03*
X137402D02*
D03*
Y219291D02*
D03*
X133465Y221260D02*
D03*
X143307Y219291D02*
D03*
Y221260D02*
D03*
X141339Y223228D02*
D03*
X123524Y261068D02*
D03*
X143145Y289138D02*
D03*
X226693Y344488D02*
D03*
Y342126D02*
D03*
X224331D02*
D03*
Y339764D02*
D03*
X221969Y339764D02*
D03*
Y337402D02*
D03*
X219606D02*
D03*
Y339764D02*
D03*
X221969Y342126D02*
D03*
X141523Y241541D02*
D03*
Y239178D02*
D03*
X143885D02*
D03*
X141523Y236816D02*
D03*
X143885D02*
D03*
X146247D02*
D03*
X143885Y234454D02*
D03*
X141523D02*
D03*
Y232092D02*
D03*
X139161Y239178D02*
D03*
Y241541D02*
D03*
X136799Y239178D02*
D03*
X139161Y236816D02*
D03*
Y234454D02*
D03*
X81975Y179606D02*
D03*
X72047Y181496D02*
D03*
X77956Y173704D02*
D03*
X75988Y175672D02*
D03*
X74016Y181496D02*
D03*
X75984Y179527D02*
D03*
X75988Y173704D02*
D03*
X79925Y173704D02*
D03*
X81975Y177637D02*
D03*
X74016Y177559D02*
D03*
X72047Y173704D02*
D03*
X77953Y179527D02*
D03*
Y177559D02*
D03*
X75984D02*
D03*
X75988Y163861D02*
D03*
X81893Y165830D02*
D03*
X80007Y171732D02*
D03*
X80007Y167795D02*
D03*
X75984Y171653D02*
D03*
X74016D02*
D03*
X75984Y167717D02*
D03*
X81893Y163861D02*
D03*
X77953Y169685D02*
D03*
X77956Y163861D02*
D03*
X72047D02*
D03*
X77956Y165830D02*
D03*
X72047Y167717D02*
D03*
X79925Y163861D02*
D03*
X81975Y171732D02*
D03*
X79925Y165830D02*
D03*
X81975Y167795D02*
D03*
X77953Y167717D02*
D03*
X72047Y165830D02*
D03*
X80007Y169763D02*
D03*
X75988Y165830D02*
D03*
X74019D02*
D03*
X72047Y169685D02*
D03*
X74019Y163861D02*
D03*
X74016Y169685D02*
D03*
Y167717D02*
D03*
X75984Y169685D02*
D03*
X72047Y171653D02*
D03*
X81975Y169763D02*
D03*
X77953Y171653D02*
D03*
X70164Y169763D02*
D03*
Y167795D02*
D03*
X70164Y171732D02*
D03*
X70082Y163861D02*
D03*
X70082Y165830D02*
D03*
X64173Y177559D02*
D03*
X66142D02*
D03*
Y179527D02*
D03*
X62205Y177559D02*
D03*
X70164Y177637D02*
D03*
X64173Y179527D02*
D03*
X62205Y181496D02*
D03*
X64177Y175672D02*
D03*
X60236Y181496D02*
D03*
X70164Y179606D02*
D03*
X62205Y179527D02*
D03*
X70164Y181574D02*
D03*
X64173Y181496D02*
D03*
X68196Y177637D02*
D03*
Y179606D02*
D03*
X149606Y259842D02*
D03*
X133025Y255755D02*
D03*
X129088Y264613D02*
D03*
X103497Y250834D02*
D03*
X280662Y189810D02*
D03*
X376135Y177015D02*
D03*
X293458Y189810D02*
D03*
X347592Y168156D02*
D03*
X83812Y88432D02*
D03*
X166535Y293307D02*
D03*
X73970Y98274D02*
D03*
X166489Y290204D02*
D03*
X83812Y98274D02*
D03*
X93504Y88583D02*
D03*
X93655Y78589D02*
D03*
X103497D02*
D03*
X64127Y265597D02*
D03*
Y250834D02*
D03*
X121063Y305118D02*
D03*
X59206Y304967D02*
D03*
X96607Y326621D02*
D03*
X59206Y324653D02*
D03*
X126135Y313826D02*
D03*
X92520Y305118D02*
D03*
X59206Y157330D02*
D03*
X82828Y326621D02*
D03*
X87598Y221457D02*
D03*
X128103Y186857D02*
D03*
X78891Y250834D02*
D03*
X103497Y221306D02*
D03*
X194903Y375404D02*
D03*
X123182Y78589D02*
D03*
X88733Y58904D02*
D03*
X88583Y63976D02*
D03*
X59206Y103196D02*
D03*
X108268Y63976D02*
D03*
X59055Y113189D02*
D03*
X98425Y63976D02*
D03*
X133025Y78589D02*
D03*
X59206Y93353D02*
D03*
X59055Y83661D02*
D03*
X196063Y358661D02*
D03*
X159599Y267566D02*
D03*
X264914Y189810D02*
D03*
X203464Y340341D02*
D03*
X251135Y373865D02*
D03*
X250984Y378937D02*
D03*
X256056Y383708D02*
D03*
Y378786D02*
D03*
X251135Y383708D02*
D03*
Y388629D02*
D03*
X256056D02*
D03*
X218655Y215401D02*
D03*
X251135Y189810D02*
D03*
X169442Y293156D02*
D03*
X214718Y219338D02*
D03*
X118110Y334646D02*
D03*
X173084Y379180D02*
D03*
X149757Y286267D02*
D03*
X96607Y363038D02*
D03*
X155663Y222290D02*
D03*
X154678Y182920D02*
D03*
Y203590D02*
D03*
X217670Y187841D02*
D03*
X197985Y186857D02*
D03*
X388930Y150440D02*
D03*
X366292Y143550D02*
D03*
X236221Y398622D02*
D03*
X206844Y393550D02*
D03*
X211765Y398471D02*
D03*
X246063Y398622D02*
D03*
X206844Y398471D02*
D03*
X262946D02*
D03*
X241142Y398622D02*
D03*
X263930Y379771D02*
D03*
X152710Y319731D02*
D03*
X156259Y345397D02*
D03*
X152710Y334495D02*
D03*
X137795Y334646D02*
D03*
X108425Y340798D02*
D03*
X155663Y280361D02*
D03*
Y283314D02*
D03*
X152710D02*
D03*
X155663Y286267D02*
D03*
X152710D02*
D03*
X66096Y361070D02*
D03*
X183071Y246063D02*
D03*
X60365Y392721D02*
D03*
X69882Y385827D02*
D03*
X84796Y398471D02*
D03*
X114185Y399052D02*
D03*
X175347Y392566D02*
D03*
X147789Y397487D02*
D03*
X241292Y364023D02*
D03*
X246214Y368944D02*
D03*
X251135D02*
D03*
X256056Y373865D02*
D03*
Y398471D02*
D03*
X251135D02*
D03*
X256056Y393550D02*
D03*
X251135D02*
D03*
X246214D02*
D03*
X217520Y203740D02*
D03*
X91302Y341535D02*
D03*
X98676D02*
D03*
X94989D02*
D03*
M02*
