G04*
G04 #@! TF.GenerationSoftware,Altium Limited,Altium Designer,21.7.2 (23)*
G04*
G04 Layer_Color=255*
%FSLAX25Y25*%
%MOIN*%
G70*
G04*
G04 #@! TF.SameCoordinates,9BAFE8C0-FE94-48CB-A9BC-8C9B0489C5DE*
G04*
G04*
G04 #@! TF.FilePolarity,Positive*
G04*
G01*
G75*
%ADD115C,0.09843*%
%ADD116C,0.05543*%
%ADD117R,0.05543X0.05543*%
G04:AMPARAMS|DCode=118|XSize=236.22mil|YSize=354.33mil|CornerRadius=0mil|HoleSize=0mil|Usage=FLASHONLY|Rotation=284.000|XOffset=0mil|YOffset=0mil|HoleType=Round|Shape=Round|*
%AMOVALD118*
21,1,0.11811,0.23622,0.00000,0.00000,14.0*
1,1,0.23622,-0.05730,-0.01429*
1,1,0.23622,0.05730,0.01429*
%
%ADD118OVALD118*%

%ADD119C,0.25197*%
%ADD120C,0.39370*%
%ADD121R,0.05020X0.05020*%
%ADD122C,0.05020*%
%ADD123C,0.04331*%
%ADD124R,0.04331X0.04331*%
%ADD125C,0.15748*%
G04:AMPARAMS|DCode=126|XSize=551.18mil|YSize=236.22mil|CornerRadius=0mil|HoleSize=0mil|Usage=FLASHONLY|Rotation=194.000|XOffset=0mil|YOffset=0mil|HoleType=Round|Shape=Round|*
%AMOVALD126*
21,1,0.31496,0.23622,0.00000,0.00000,194.0*
1,1,0.23622,0.15280,0.03810*
1,1,0.23622,-0.15280,-0.03810*
%
%ADD126OVALD126*%

%ADD127C,0.62992*%
%ADD128R,0.05906X0.05906*%
%ADD129C,0.05906*%
%ADD130C,0.09055*%
D115*
X191732Y387402D02*
D03*
X98819Y387795D02*
D03*
X157480Y387795D02*
D03*
X131234Y387795D02*
D03*
D116*
X201575Y397244D02*
D03*
X181890Y387402D02*
D03*
X88976Y387795D02*
D03*
X108661Y397638D02*
D03*
X147638Y387795D02*
D03*
X167323Y397638D02*
D03*
X121391Y387795D02*
D03*
X141076Y397638D02*
D03*
D117*
X201575Y377559D02*
D03*
X108661Y377953D02*
D03*
X167323Y377953D02*
D03*
X141076Y377953D02*
D03*
D118*
X402186Y212245D02*
D03*
X408661Y184646D02*
D03*
D119*
X309055Y385433D02*
D03*
X70472Y344488D02*
D03*
X420472Y151575D02*
D03*
X70079Y64961D02*
D03*
D120*
X226378Y379528D02*
D03*
D121*
X126772Y225197D02*
D03*
D122*
X116929D02*
D03*
D123*
X82284Y298819D02*
D03*
D124*
Y290945D02*
D03*
D125*
X393027Y253723D02*
D03*
X378740Y311024D02*
D03*
D126*
X328274Y227431D02*
D03*
X335512Y198398D02*
D03*
D127*
X287253Y138082D02*
D03*
X259632Y248863D02*
D03*
D128*
X111601Y111923D02*
D03*
D129*
Y82395D02*
D03*
D130*
X250630Y299764D02*
D03*
X260630D02*
D03*
X270630D02*
D03*
X280630Y299764D02*
D03*
X290630Y299764D02*
D03*
X250630Y309764D02*
D03*
X260630D02*
D03*
X270630D02*
D03*
X280630D02*
D03*
X290630D02*
D03*
X250630Y319764D02*
D03*
X260630D02*
D03*
X270630Y319764D02*
D03*
X280630Y319764D02*
D03*
X290630D02*
D03*
X250630Y329764D02*
D03*
X260630D02*
D03*
X270630D02*
D03*
X280630D02*
D03*
X290630D02*
D03*
X250630Y339764D02*
D03*
X260630D02*
D03*
X270630Y339764D02*
D03*
X280630Y339764D02*
D03*
X290630D02*
D03*
X179806Y83909D02*
D03*
X189509Y86329D02*
D03*
X199212Y88748D02*
D03*
X208915Y91167D02*
D03*
X218618Y93586D02*
D03*
X177387Y93612D02*
D03*
X187090Y96031D02*
D03*
X196793Y98451D02*
D03*
X206496Y100870D02*
D03*
X216199Y103289D02*
D03*
X174968Y103315D02*
D03*
X184671Y105735D02*
D03*
X194374Y108154D02*
D03*
X204077Y110573D02*
D03*
X213779Y112992D02*
D03*
X172548Y113018D02*
D03*
X182251Y115437D02*
D03*
X191954Y117857D02*
D03*
X201657Y120276D02*
D03*
X211360Y122695D02*
D03*
X170129Y122721D02*
D03*
X179832Y125140D02*
D03*
X189535Y127560D02*
D03*
X199238Y129979D02*
D03*
X208941Y132398D02*
D03*
M02*
