M48
;Layer_Color=9474304
;FILE_FORMAT=2:5
INCH,LZ
;TYPE=PLATED
T1F00S00C0.01181
T2F00S00C0.02756
T3F00S00C0.03346
T4F00S00C0.03543
T5F00S00C0.03937
T6F00S00C0.05906
T8F00S00C0.06299
T9F00S00C0.13386
T10F00S00C0.18110
T11F00S00C0.25197
;TYPE=NON_PLATED
T12F00S00C0.09843
%
T01
X0059055Y0083661
X0059206Y0093353
Y0103196
X0059055Y0113189
X0059206Y0122881
Y0132723
X0059055Y0147638
X0069722Y0147752
X0067648Y0143697
X0103164Y0147789
X0111181Y0147385
X011315
Y0145417
X0111181
X0111181Y0143251
X011315
X0115118
X0117087
X0119055
X0119055Y0141184
X0117087
X0115118
Y0139216
Y0137247
X011315
Y0139216
X0111181
X0109295
X0107326
Y0137244
X0109295
X0111181Y0137247
Y0135279
X0109295Y0135275
X0107326
Y0133307
X0109295
X0111181Y013331
X011315
Y0135279
X0115118
Y013331
X0117087Y013331
X0119055
X0119055Y0135279
X0117087
X0117087Y0137247
X0119055
Y0139216
X0117087
X012102Y0139158
X0122989
X0124981
X0126949
X0128918
Y0137186
X0126949
X0124981
Y0135217
Y0133249
X0122989Y0133229
Y013126
X012102
X0119134Y0131256
Y0129288
X012102
X0117165
Y0131256
X0115197
Y0129288
X0113228Y0129288
X011126
X011126Y0131256
X0113228
X0109295Y0131338
Y012937
X0107326Y012937
Y0131338
X0111181Y0141184
X011315
X0115118Y0145417
Y0147385
Y0149354
Y0151322
Y0153291
X011315
Y0151322
Y0149354
X0111181
Y0151322
Y0153291
X0111181Y0155358
X011315
X0115118
X0117087
X0119055
X0119055Y0153291
X0117087
Y0151322
Y0149354
X0119055
Y0151322
X0119055Y0147385
X0117087
X0117087Y0145417
X0119055
X012102Y0137165
X0122989Y0137165
X0122989Y0135197
X012102
Y0133229
X0126949Y0135217
X0123182Y0078589
X0133025
X0103497
X0093655
X0093504Y0088583
X0083812Y0088432
Y0098274
X007397
X0088583Y0063976
X0088733Y0058904
X0098425Y0063976
X0108268
X0366292Y014355
X038893Y015044
X0376135Y0177015
X0347592Y0168156
X0327165Y0280315
X032559Y028189
X0324016Y0283465
X0322441Y0285039
X0319587Y0311267
X0293458Y018981
X0280662
X0264914
X0251135
X0229331Y0189961
X021767Y0187841
X021752Y020374
X0218655Y0215401
X0214718Y0219338
X0197985Y0186857
X0183071Y0246063
X0169095Y0271457
Y0273686
Y0275752
Y0277918
Y0279985
Y0282052
X0167224Y0281067
Y0279
Y0276835
Y027467
Y0272539
Y0283134
X0166489Y0290204
X0169442
Y0293156
X0169291Y0296053
X0166535Y0293307
X0159557Y0311881
X015732
X0159599Y0267566
X0155663Y0280361
Y0283314
X015271
Y0286267
X0155663
Y0289219
X015271
X0149757Y0286267
X0146653Y028563
X0143145Y0289138
X0149606Y0259842
X0133025Y0255755
X0129088Y0264613
X0123524Y0261068
X0116929Y0261122
X0103497Y0250834
X0078891
X0064127
Y0265597
X0059206Y0304967
X009252Y0305118
X0121063
X0132074Y0234454
X0134436
Y0236816
X0136799
Y0234454
Y0232092
X0134436
X0139161
X0141523
Y0234454
Y0236816
X0139161
Y0234454
X0143885
Y0236816
X0146247
X0143885Y0239178
X0141523
Y0241541
X0139161
Y0239178
X0136799
X0137402Y0223228
X013937
Y022126
Y0219291
Y0217323
X0137402
Y0219291
Y022126
X0135433
Y0219291
X0133465
Y0217323
X0131496
Y0219291
Y022126
X0133465
Y0223228
X0135433
Y0217323
X0129528
Y0219291
X0141339
Y0217323
X0143307
Y0219291
Y022126
X0141339
Y0223228
X0155663Y022229
X0154678Y020359
Y018292
X0128103Y0186857
X0117126Y015748
X0115118Y0157425
X011315
X011315Y0159393
X0115118
X0111181Y0159393
Y0157425
X0109213
Y0159393
X0081893Y0163861
X0079925
X0079925Y016583
X0081893
X0081975Y0167795
Y0169763
X0081975Y0171732
X0080007
X0080007Y0169763
Y0167795
X0077953Y0167717
X0077956Y016583
Y0163861
X0075988
Y016583
X0075984Y0167717
Y0169685
X0077953
Y0171653
X0075984
X0074016
X0072047
X0070164Y0171732
X0068196
X0068196Y0169763
Y0167795
X0070164Y0167795
X0072047Y0167717
Y016583
X0070082Y016583
X0068114
X0068114Y0163861
X0070082
X0072047Y0163861
X0074019
Y016583
X0074016Y0167717
Y0169685
X0072047
X0070164Y0169763
X0070082Y0173704
X0072047Y0173704
Y0175672
Y0177559
X0070164Y0177637
Y0179606
X0072047Y0179527
X0074016
Y0177559
X0074019Y0175672
Y0173704
X0075988
Y0175672
X0075984Y0177559
Y0179527
X0077953
Y0177559
X0077956Y0175672
Y0173704
X0079925Y0173704
X0081893
X0081893Y0175672
X0079925
X0080007Y0177637
Y0179606
X0081975Y0179606
Y0177637
X0081975Y0181574
X0080007
X0077953Y0181496
X0075984
X0074016
X0072047
X0070164Y0181574
X0068196
X0068196Y0179606
Y0177637
X0068114Y0175672
X0070082
X0068114Y0173704
X0066145Y0173704
Y0175672
X0066142Y0177559
X0064173
X0064177Y0175672
Y0173704
X0062208
Y0175672
X0062205Y0177559
X0060236
Y0175672
Y0173704
Y0171653
X0062205
X0064173
X0066142
Y0169685
Y0167717
X0066145Y016583
Y0163861
X0064177
Y016583
X0064173Y0167717
Y0169685
X0062205
X0060236
Y0167717
Y016583
Y0163861
X0062208
Y016583
X0062205Y0167717
Y0179527
X0060236
Y0181496
X0062205
X0064173
X0066142
Y0179527
X0064173
X0059206Y015733
X0087598Y0221457
X0103497Y0221306
X0096607Y0326621
X0082828
X0087913Y0338976
X0091302Y0341535
X0094989
X0098676
X0102362
X0108425Y0340798
X011811Y0334646
X0120229Y0350243
X0133025
X0147789Y0349259
X0154945Y0356638
X015271Y0334495
Y0319731
X015621Y031385
X0126135Y0313826
X0137795Y0334646
X013398Y0373955
X0147789Y0376818
Y0397487
X0114185Y0399052
X0120229Y0377802
X009143Y0378236
X0087431Y0378229
X0079894Y0375564
X0073359Y0381115
X0069882Y0385827
X0073228Y0391339
X0080431Y0392469
X0084796Y0398471
X0060365Y0392721
X0066096Y036107
X0096607Y0363038
X0094882Y0351575
X0098569
X0102255
X0091195
X0087913Y0348819
X0059206Y0324653
X0158447Y031385
X0160684
X0183364Y0314472
X0192027Y0318898
X0193996
Y0320866
X0195965
Y0318898
X0197933
X02
Y0320866
X0198031
Y0322835
X02
X0201969
Y0324803
X020187Y0326772
X0199902Y0326772
Y0324803
X0197933
X0196063Y0322835
X0201969Y0320866
Y0318898
X0203464Y0340341
X0211811Y033937
X0219606Y0339764
X0221969
Y0337402
X0219606
X0224331Y0337402
Y0339764
X0226693
Y0342126
Y0344488
X0224318Y0344439
X0224331Y0342126
X0221969
X0229055
X0229071Y0344433
X0231417Y0344488
X0232434Y0355164
X0241292Y0364023
X0246214Y0368944
X0251135
Y0373865
X0256056
Y0378786
Y0383708
X0251135
X0250984Y0378937
X0251135Y0388629
X0256056
Y039355
Y0398471
X0251135
Y039355
X0246214
X0246063Y0398622
X0241142
X0236221
X0211765Y0398471
X0206844
Y039355
X0194903Y0375404
X0196063Y0358661
X0201575Y0354331
X0211765Y0357133
X021064Y0348436
X0194024Y034815
X0183089Y0351948
X0180351Y0349606
X0180709Y0339764
X0185958Y0340276
X0166489Y0340401
X0169096Y0350821
X0174363Y0359101
X0173084Y037918
X0175347Y0392566
X0156259Y0345397
X0176378Y0327165
X026393Y0379771
X0262946Y0398471
X0314521Y0345229
X0316095Y0343655
X031767Y034208
X0319245Y0340505
X0319685Y0334646
T02
X0082284Y0290945
Y0298819
T03
X0116929Y0225197
X0126772
T04
X0088976Y0387795
X0108661Y0377953
Y0397638
X0121391Y0387795
X0147638Y0387795
X0141076Y0397638
Y0377953
X0167323Y0377953
Y0397638
X018189Y0387402
X0201575Y0397244
Y0377559
T05
X0111601Y0082395
Y0111923
T06
X0393027Y0253723
X037874Y0311024
T08
X0179806Y0083909
X0189509Y0086329
X0199212Y0088748
X0196793Y0098451
X0206496Y010087
X0208915Y0091167
X0218618Y0093586
X0216199Y0103289
X0213779Y0112992
X0204077Y0110573
X0194374Y0108154
X0191954Y0117857
X0182251Y0115437
X0179832Y012514
X0189535Y012756
X0199238Y0129979
X0208941Y0132398
X021136Y0122695
X0201657Y0120276
X0184671Y0105735
X0174968Y0103315
X0177387Y0093612
X018709Y0096031
X0172548Y0113018
X0170129Y0122721
X025063Y0299764
X026063
X027063
X028063Y0299764
X029063Y0299764
Y0309764
X028063
X027063
X026063
X025063
Y0319764
X026063
Y0329764
X025063
X025063Y0339764
X026063
X027063Y0339764
Y0329764
X028063
X029063
Y0319764
X028063
X027063Y0319764
X028063Y0339764
X029063
T09
X0070079Y0064961
X0420472Y0151575
X0070472Y0344488
X0309055Y0385433
T10
X0408661Y0184646
X0402186Y0212245
X0226378Y0379528
T11
X0287253Y0138082
X0259632Y0248863
T12
X0098819Y0387795
X0131234
X015748Y0387795
X0191732Y0387402
M30
