G04*
G04 #@! TF.GenerationSoftware,Altium Limited,Altium Designer,21.7.2 (23)*
G04*
G04 Layer_Color=8421504*
%FSLAX25Y25*%
%MOIN*%
G70*
G04*
G04 #@! TF.SameCoordinates,9BAFE8C0-FE94-48CB-A9BC-8C9B0489C5DE*
G04*
G04*
G04 #@! TF.FilePolarity,Positive*
G04*
G01*
G75*
%ADD19R,0.20866X0.11024*%
%ADD20R,0.02500X0.02362*%
%ADD21R,0.01181X0.01870*%
%ADD22R,0.14764X0.18504*%
%ADD23R,0.04134X0.03347*%
%ADD24R,0.05709X0.03347*%
%ADD25R,0.08858X0.12402*%
G04:AMPARAMS|DCode=26|XSize=145.67mil|YSize=51.18mil|CornerRadius=0mil|HoleSize=0mil|Usage=FLASHONLY|Rotation=305.000|XOffset=0mil|YOffset=0mil|HoleType=Round|Shape=Rectangle|*
%AMROTATEDRECTD26*
4,1,4,-0.06274,0.04498,-0.02081,0.07434,0.06274,-0.04498,0.02081,-0.07434,-0.06274,0.04498,0.0*
%
%ADD26ROTATEDRECTD26*%

G04:AMPARAMS|DCode=27|XSize=405.51mil|YSize=350.39mil|CornerRadius=0mil|HoleSize=0mil|Usage=FLASHONLY|Rotation=215.000|XOffset=0mil|YOffset=0mil|HoleType=Round|Shape=Rectangle|*
%AMROTATEDRECTD27*
4,1,4,0.06560,0.25981,0.26658,-0.02722,-0.06560,-0.25981,-0.26658,0.02722,0.06560,0.25981,0.0*
%
%ADD27ROTATEDRECTD27*%

%ADD28R,0.02362X0.06299*%
%ADD29R,0.04724X0.07087*%
%ADD30R,0.03937X0.02165*%
G04:AMPARAMS|DCode=31|XSize=47.24mil|YSize=23.62mil|CornerRadius=0mil|HoleSize=0mil|Usage=FLASHONLY|Rotation=225.000|XOffset=0mil|YOffset=0mil|HoleType=Round|Shape=Rectangle|*
%AMROTATEDRECTD31*
4,1,4,0.00835,0.02506,0.02506,0.00835,-0.00835,-0.02506,-0.02506,-0.00835,0.00835,0.02506,0.0*
%
%ADD31ROTATEDRECTD31*%

%ADD32R,0.03800X0.03937*%
%ADD33R,0.02756X0.03937*%
G04:AMPARAMS|DCode=34|XSize=38mil|YSize=39.37mil|CornerRadius=0mil|HoleSize=0mil|Usage=FLASHONLY|Rotation=135.000|XOffset=0mil|YOffset=0mil|HoleType=Round|Shape=Rectangle|*
%AMROTATEDRECTD34*
4,1,4,0.02736,0.00048,-0.00048,-0.02736,-0.02736,-0.00048,0.00048,0.02736,0.02736,0.00048,0.0*
%
%ADD34ROTATEDRECTD34*%

%ADD35R,0.05118X0.03150*%
%ADD36R,0.05906X0.14567*%
%ADD37R,0.03937X0.03800*%
%ADD38R,0.04724X0.01772*%
G04:AMPARAMS|DCode=39|XSize=25mil|YSize=23.62mil|CornerRadius=0mil|HoleSize=0mil|Usage=FLASHONLY|Rotation=110.000|XOffset=0mil|YOffset=0mil|HoleType=Round|Shape=Rectangle|*
%AMROTATEDRECTD39*
4,1,4,0.01537,-0.00771,-0.00682,-0.01579,-0.01537,0.00771,0.00682,0.01579,0.01537,-0.00771,0.0*
%
%ADD39ROTATEDRECTD39*%

%ADD40R,0.02165X0.04134*%
%ADD41R,0.04724X0.02362*%
G04:AMPARAMS|DCode=42|XSize=25mil|YSize=23.62mil|CornerRadius=0mil|HoleSize=0mil|Usage=FLASHONLY|Rotation=45.000|XOffset=0mil|YOffset=0mil|HoleType=Round|Shape=Rectangle|*
%AMROTATEDRECTD42*
4,1,4,-0.00049,-0.01719,-0.01719,-0.00049,0.00049,0.01719,0.01719,0.00049,-0.00049,-0.01719,0.0*
%
%ADD42ROTATEDRECTD42*%

G04:AMPARAMS|DCode=43|XSize=98.43mil|YSize=125.98mil|CornerRadius=12.3mil|HoleSize=0mil|Usage=FLASHONLY|Rotation=90.000|XOffset=0mil|YOffset=0mil|HoleType=Round|Shape=RoundedRectangle|*
%AMROUNDEDRECTD43*
21,1,0.09843,0.10138,0,0,90.0*
21,1,0.07382,0.12598,0,0,90.0*
1,1,0.02461,0.05069,0.03691*
1,1,0.02461,0.05069,-0.03691*
1,1,0.02461,-0.05069,-0.03691*
1,1,0.02461,-0.05069,0.03691*
%
%ADD43ROUNDEDRECTD43*%
%ADD44R,0.02362X0.02500*%
%ADD45R,0.03937X0.02756*%
%ADD46R,0.02362X0.05807*%
%ADD47R,0.05807X0.02362*%
%ADD48R,0.13976X0.07284*%
%ADD49R,0.07087X0.04724*%
%ADD50R,0.06299X0.02362*%
%ADD51R,0.06004X0.02559*%
%ADD52R,0.09449X0.12205*%
%ADD53R,0.07520X0.11024*%
%ADD54R,0.07874X0.17362*%
%ADD55R,0.07874X0.02362*%
G04:AMPARAMS|DCode=56|XSize=38mil|YSize=39.37mil|CornerRadius=0mil|HoleSize=0mil|Usage=FLASHONLY|Rotation=45.000|XOffset=0mil|YOffset=0mil|HoleType=Round|Shape=Rectangle|*
%AMROTATEDRECTD56*
4,1,4,0.00048,-0.02736,-0.02736,0.00048,-0.00048,0.02736,0.02736,-0.00048,0.00048,-0.02736,0.0*
%
%ADD56ROTATEDRECTD56*%

D19*
X82185Y235039D02*
D03*
Y274803D02*
D03*
D20*
X89432Y225295D02*
D03*
X94032D02*
D03*
X101119Y293701D02*
D03*
X96519D02*
D03*
Y289764D02*
D03*
X101119D02*
D03*
X63520Y210236D02*
D03*
X58921D02*
D03*
X96519Y285827D02*
D03*
X101119D02*
D03*
D21*
X66437Y215008D02*
D03*
X68405D02*
D03*
X70374D02*
D03*
X72342D02*
D03*
Y221606D02*
D03*
X70374D02*
D03*
X68405D02*
D03*
X66437D02*
D03*
D22*
X308661Y323996D02*
D03*
X308661Y303799D02*
D03*
D23*
X299213Y316496D02*
D03*
X299213Y321496D02*
D03*
Y326496D02*
D03*
Y331496D02*
D03*
X299213Y296299D02*
D03*
Y301299D02*
D03*
Y306299D02*
D03*
Y311299D02*
D03*
D24*
X321654Y331496D02*
D03*
X321654Y326496D02*
D03*
Y321496D02*
D03*
Y316496D02*
D03*
X321654Y311299D02*
D03*
Y306299D02*
D03*
Y301299D02*
D03*
Y296299D02*
D03*
D25*
X189764Y152559D02*
D03*
X162598Y152559D02*
D03*
X63976Y168898D02*
D03*
X91142D02*
D03*
D26*
X322180Y355313D02*
D03*
X338563Y366785D02*
D03*
D27*
X354308Y326864D02*
D03*
D28*
X73228Y396457D02*
D03*
X65354D02*
D03*
X77165D02*
D03*
X69291Y396457D02*
D03*
X69291Y375591D02*
D03*
X77165Y375590D02*
D03*
X65354Y375591D02*
D03*
X73228D02*
D03*
X169587Y220177D02*
D03*
X173524D02*
D03*
X165650D02*
D03*
X170177Y180413D02*
D03*
X178051D02*
D03*
X174114D02*
D03*
X166240D02*
D03*
X170177Y200295D02*
D03*
X178051D02*
D03*
X174114D02*
D03*
X166240D02*
D03*
X120472Y254724D02*
D03*
X128347D02*
D03*
X124409D02*
D03*
X116535D02*
D03*
X138976Y327165D02*
D03*
X131102D02*
D03*
X135039D02*
D03*
X142913D02*
D03*
D29*
X59842Y386614D02*
D03*
X82677D02*
D03*
X82677Y365748D02*
D03*
X59842Y365748D02*
D03*
X178445Y210335D02*
D03*
X160728D02*
D03*
X183563Y170571D02*
D03*
X160728D02*
D03*
Y190453D02*
D03*
X183563D02*
D03*
X111024Y244882D02*
D03*
X133858D02*
D03*
X148425Y337008D02*
D03*
X125591D02*
D03*
D30*
X222638D02*
D03*
X215158Y334449D02*
D03*
Y339567D02*
D03*
X203484Y337303D02*
D03*
X196004Y334744D02*
D03*
Y339862D02*
D03*
X177041D02*
D03*
Y334744D02*
D03*
X184521Y337303D02*
D03*
X159646Y339567D02*
D03*
Y334449D02*
D03*
X167126Y337008D02*
D03*
D31*
X226597Y350835D02*
D03*
X223952Y353480D02*
D03*
X221308Y356124D02*
D03*
X214348Y349165D02*
D03*
X219637Y343876D02*
D03*
X166881Y346238D02*
D03*
X161592Y351527D02*
D03*
X168552Y358487D02*
D03*
X171196Y355842D02*
D03*
X173841Y353197D02*
D03*
X183778Y345647D02*
D03*
X178488Y350937D02*
D03*
X185448Y357896D02*
D03*
X188093Y355252D02*
D03*
X190737Y352607D02*
D03*
X202741Y345647D02*
D03*
X197452Y350937D02*
D03*
X204411Y357896D02*
D03*
X207056Y355252D02*
D03*
X209701Y352607D02*
D03*
D32*
X272975Y358788D02*
D03*
X266575D02*
D03*
X158496Y371815D02*
D03*
X152096Y371815D02*
D03*
X140484Y371815D02*
D03*
X146884Y371815D02*
D03*
X198375Y366142D02*
D03*
X204775D02*
D03*
X226133Y208858D02*
D03*
X219733D02*
D03*
X66192Y287795D02*
D03*
X59792D02*
D03*
Y294488D02*
D03*
X66192D02*
D03*
X73821Y226181D02*
D03*
X67421D02*
D03*
D33*
X123622Y360630D02*
D03*
X127165Y351181D02*
D03*
X130709Y360630D02*
D03*
X151575Y351181D02*
D03*
X148031Y360630D02*
D03*
X155118D02*
D03*
X114961Y351181D02*
D03*
X118504Y360630D02*
D03*
X111417Y360630D02*
D03*
X135827D02*
D03*
X139370Y351181D02*
D03*
X142913Y360630D02*
D03*
D34*
X101281Y360530D02*
D03*
X105806Y356005D02*
D03*
D35*
X266300Y352812D02*
D03*
X279686D02*
D03*
D36*
X186614Y323622D02*
D03*
X161417D02*
D03*
X266929Y390158D02*
D03*
X292126Y390158D02*
D03*
D37*
X114961Y385484D02*
D03*
X114961Y379083D02*
D03*
X191732Y360973D02*
D03*
Y367373D02*
D03*
X209941Y187255D02*
D03*
Y180855D02*
D03*
X218996Y176131D02*
D03*
Y182531D02*
D03*
X228839D02*
D03*
Y176131D02*
D03*
X237894Y188830D02*
D03*
Y182430D02*
D03*
Y200247D02*
D03*
Y193847D02*
D03*
X97244Y215798D02*
D03*
Y209398D02*
D03*
X133169Y146617D02*
D03*
Y140217D02*
D03*
X71260Y311861D02*
D03*
Y305461D02*
D03*
X91732Y314123D02*
D03*
Y320523D02*
D03*
X85433Y215798D02*
D03*
Y209398D02*
D03*
X91339Y215798D02*
D03*
Y209398D02*
D03*
X174409Y291389D02*
D03*
Y284989D02*
D03*
X179921Y291389D02*
D03*
Y284989D02*
D03*
X133169Y152016D02*
D03*
Y158416D02*
D03*
X65453Y154283D02*
D03*
Y147883D02*
D03*
D38*
X125000Y365846D02*
D03*
Y368406D02*
D03*
Y370965D02*
D03*
Y373524D02*
D03*
X115157D02*
D03*
Y370965D02*
D03*
Y368406D02*
D03*
Y365846D02*
D03*
X182480Y372933D02*
D03*
X172638Y375492D02*
D03*
X182480Y367815D02*
D03*
Y370374D02*
D03*
Y375492D02*
D03*
X172638Y372933D02*
D03*
Y370374D02*
D03*
Y367815D02*
D03*
X218799Y192421D02*
D03*
Y194980D02*
D03*
Y197539D02*
D03*
Y200098D02*
D03*
X228642D02*
D03*
Y197539D02*
D03*
Y194980D02*
D03*
Y192421D02*
D03*
D39*
X244094Y354532D02*
D03*
X242520Y358854D02*
D03*
D40*
X83268Y322047D02*
D03*
X79528D02*
D03*
X75787D02*
D03*
Y311811D02*
D03*
X79528D02*
D03*
X83268D02*
D03*
D41*
X259449Y359055D02*
D03*
Y351575D02*
D03*
X249606D02*
D03*
Y355315D02*
D03*
Y359055D02*
D03*
D42*
X180760Y359894D02*
D03*
X177507Y356641D02*
D03*
X148374Y156248D02*
D03*
X151626Y159500D02*
D03*
D43*
X122441Y167618D02*
D03*
Y206988D02*
D03*
D44*
X204429Y180243D02*
D03*
Y184843D02*
D03*
X243012Y187536D02*
D03*
Y182936D02*
D03*
X103347Y140391D02*
D03*
Y135791D02*
D03*
X109646Y255672D02*
D03*
Y260272D02*
D03*
X143701Y158205D02*
D03*
Y153605D02*
D03*
X59516Y227569D02*
D03*
Y222969D02*
D03*
X59524Y220621D02*
D03*
Y216021D02*
D03*
X208661Y334708D02*
D03*
Y339308D02*
D03*
X185406Y281317D02*
D03*
Y285917D02*
D03*
Y272492D02*
D03*
Y277092D02*
D03*
X139764Y153605D02*
D03*
Y158205D02*
D03*
X65059Y141375D02*
D03*
Y136775D02*
D03*
Y133501D02*
D03*
Y128901D02*
D03*
D45*
X210728Y204528D02*
D03*
Y197441D02*
D03*
X201279Y200984D02*
D03*
X210728Y215158D02*
D03*
X201279Y218701D02*
D03*
Y211614D02*
D03*
D46*
X137008Y304087D02*
D03*
X143307D02*
D03*
X140157D02*
D03*
X133858D02*
D03*
Y270717D02*
D03*
X137008D02*
D03*
X140157D02*
D03*
X143307D02*
D03*
X146457D02*
D03*
X149606D02*
D03*
X152756D02*
D03*
X155905D02*
D03*
X146457Y304087D02*
D03*
X149606D02*
D03*
X152756D02*
D03*
X155905D02*
D03*
D47*
X161567Y276378D02*
D03*
Y279528D02*
D03*
Y282677D02*
D03*
Y285827D02*
D03*
Y288976D02*
D03*
Y292126D02*
D03*
Y295276D02*
D03*
Y298425D02*
D03*
X128197D02*
D03*
Y295276D02*
D03*
Y292126D02*
D03*
Y288976D02*
D03*
Y285827D02*
D03*
Y282677D02*
D03*
Y279528D02*
D03*
Y276378D02*
D03*
D48*
X64272Y193996D02*
D03*
X85532D02*
D03*
D49*
X116929Y276378D02*
D03*
Y299213D02*
D03*
X163386Y241142D02*
D03*
Y258858D02*
D03*
D50*
X107087Y281890D02*
D03*
Y289764D02*
D03*
Y293701D02*
D03*
Y285827D02*
D03*
X153543Y246063D02*
D03*
Y253937D02*
D03*
Y250000D02*
D03*
D51*
X104382Y157795D02*
D03*
Y152795D02*
D03*
Y147795D02*
D03*
Y142795D02*
D03*
X125736D02*
D03*
Y147795D02*
D03*
Y152795D02*
D03*
Y157795D02*
D03*
D52*
X115059Y150295D02*
D03*
D53*
X310572Y359310D02*
D03*
X290887D02*
D03*
D54*
X231693Y283307D02*
D03*
Y303307D02*
D03*
D55*
X195079Y310807D02*
D03*
Y305807D02*
D03*
Y300807D02*
D03*
Y295807D02*
D03*
Y290807D02*
D03*
Y285807D02*
D03*
Y280807D02*
D03*
Y275807D02*
D03*
D56*
X73129Y120373D02*
D03*
X68603Y115848D02*
D03*
X77066Y116436D02*
D03*
X72540Y111910D02*
D03*
M02*
