G04*
G04 #@! TF.GenerationSoftware,Altium Limited,Altium Designer,21.7.2 (23)*
G04*
G04 Layer_Color=16711935*
%FSLAX25Y25*%
%MOIN*%
G70*
G04*
G04 #@! TF.SameCoordinates,9BAFE8C0-FE94-48CB-A9BC-8C9B0489C5DE*
G04*
G04*
G04 #@! TF.FilePolarity,Positive*
G04*
G01*
G75*
%ADD10C,0.00500*%
%ADD11C,0.00787*%
%ADD12C,0.00394*%
D10*
X196973Y398641D02*
G03*
X196973Y376162I-5241J-11240D01*
G01*
X104060Y399035D02*
G03*
X104060Y376556I-5241J-11240D01*
G01*
X162721Y399035D02*
G03*
X162721Y376556I-5241J-11240D01*
G01*
X136475Y399035D02*
G03*
X136475Y376556I-5241J-11240D01*
G01*
X197014Y398622D02*
X204134D01*
Y376181D02*
Y398622D01*
X197014Y376181D02*
X204134D01*
X104101Y376575D02*
X111221D01*
Y399016D01*
X104101D02*
X111221D01*
X162762Y376575D02*
X169882D01*
Y399016D01*
X162762D02*
X169882D01*
X136515Y376575D02*
X143635D01*
Y399016D01*
X136515D02*
X143635D01*
D11*
X201969Y371654D02*
G03*
X201969Y371654I-394J0D01*
G01*
X109055Y372047D02*
G03*
X109055Y372047I-394J0D01*
G01*
X167717Y372047D02*
G03*
X167717Y372047I-394J0D01*
G01*
X141470Y372047D02*
G03*
X141470Y372047I-394J0D01*
G01*
X58563Y231299D02*
X105807D01*
X58563D02*
Y278543D01*
X105807D01*
Y231299D02*
Y278543D01*
X353553Y362742D02*
X374216Y333233D01*
X320852Y339844D02*
X353553Y362742D01*
X320852Y339844D02*
X341514Y310335D01*
X374216Y333233D01*
X356309Y324501D02*
X379549Y231292D01*
X356309Y324501D02*
X392218Y333454D01*
X415458Y240245D01*
X379549Y231292D02*
X415458Y240245D01*
X245039Y345354D02*
X296220D01*
Y294173D02*
Y345354D01*
X245039Y294173D02*
X296220D01*
X245039D02*
Y345354D01*
X163352Y126793D02*
X213013Y139175D01*
X225395Y89514D01*
X175734Y77132D02*
X225395Y89514D01*
X163352Y126793D02*
X175734Y77132D01*
D12*
X93110Y294882D02*
G03*
X93110Y294882I-10827J0D01*
G01*
X147527Y97159D02*
G03*
X147527Y97159I-35925J0D01*
G01*
X65256Y215945D02*
Y220669D01*
X73524D01*
Y215945D02*
Y220669D01*
X65256Y215945D02*
X73524D01*
X65256Y217913D02*
X67224Y215945D01*
X299114Y314350D02*
X321752D01*
X321752Y333642D01*
X299114D02*
X321752D01*
X299114Y314350D02*
X299114Y333642D01*
X160531Y159744D02*
X164961Y164173D01*
X160531Y140945D02*
X160531Y164173D01*
X160531Y140945D02*
X191831Y140945D01*
X191831Y164173D01*
X160531Y164173D02*
X191831Y164173D01*
X216437Y338386D02*
X218996Y340945D01*
X216437Y333071D02*
Y340945D01*
Y333071D02*
X221358D01*
Y340945D01*
X216437D02*
X221358D01*
X222282Y343736D02*
X226736Y348190D01*
X214209Y351810D02*
X222282Y343736D01*
X214209Y351810D02*
X218663Y356264D01*
X226736Y348190D01*
X224092Y345546D02*
Y350835D01*
X275650Y349662D02*
X278209Y352221D01*
X278209Y349662D02*
Y355961D01*
X267776D02*
X278209D01*
X267776Y349662D02*
Y355961D01*
Y349662D02*
X278209D01*
X171336Y347908D02*
Y353197D01*
X165907Y358626D02*
X173980Y350553D01*
X161453Y354172D02*
X165907Y358626D01*
X161453Y354172D02*
X169526Y346098D01*
X173980Y350553D01*
X188232Y347317D02*
Y352607D01*
X182803Y358035D02*
X190877Y349962D01*
X178349Y353581D02*
X182803Y358035D01*
X178349Y353581D02*
X186423Y345508D01*
X190877Y349962D01*
X197283Y338681D02*
X199842Y341240D01*
X197283Y333366D02*
Y341240D01*
Y333366D02*
X202205D01*
Y341240D01*
X197283D02*
X202205D01*
X178320D02*
X183241D01*
Y333366D02*
Y341240D01*
X178320Y333366D02*
X183241D01*
X178320D02*
Y341240D01*
Y338681D02*
X180879Y341240D01*
X160925Y340945D02*
X165847D01*
Y333071D02*
Y340945D01*
X160925Y333071D02*
X165847D01*
X160925D02*
Y340945D01*
Y338386D02*
X163484Y340945D01*
X116929Y363976D02*
X123228D01*
X116929D02*
Y375394D01*
X123228D01*
Y363976D02*
Y375394D01*
X120669Y363976D02*
X123228Y366535D01*
X85236Y313732D02*
Y320126D01*
X73819Y313732D02*
X85236D01*
X73819D02*
Y320126D01*
X85236D01*
X81496D02*
X85236Y316386D01*
X136417Y215945D02*
Y238583D01*
X107283Y215945D02*
X136417D01*
X107283D02*
Y238583D01*
X136417D01*
X251378Y357283D02*
X255118Y361024D01*
X251378Y349606D02*
Y361024D01*
Y349606D02*
X257677D01*
Y361024D01*
X251378D02*
X257677D01*
X174409Y365945D02*
X180709D01*
X174409D02*
Y377362D01*
X180709D01*
Y365945D02*
Y377362D01*
X178150Y365945D02*
X180709Y368504D01*
X224311Y190551D02*
X226870Y193110D01*
Y190551D02*
Y201969D01*
X220571D02*
X226870D01*
X220571Y190551D02*
Y201969D01*
Y190551D02*
X226870D01*
X131102Y273622D02*
X158661D01*
X131102D02*
Y301181D01*
X158661D01*
Y273622D02*
Y301181D01*
X155512Y273622D02*
X158661Y276772D01*
X61909Y181004D02*
Y206988D01*
X81398D01*
X87894Y200492D01*
Y187500D02*
Y200492D01*
X81398Y181004D02*
X87894Y187500D01*
X61909Y181004D02*
X81398D01*
X88779Y157283D02*
X93209Y161713D01*
Y157283D02*
Y180512D01*
X61910D02*
X93209D01*
X61910Y157283D02*
Y180512D01*
Y157283D02*
X93209D01*
X207195Y347317D02*
Y352607D01*
X201767Y358035D02*
X209840Y349962D01*
X197312Y353581D02*
X201767Y358035D01*
X197312Y353581D02*
X205386Y345508D01*
X209840Y349962D01*
X299114Y294153D02*
X321752D01*
Y313445D01*
X299114D02*
X321752D01*
X299114Y294153D02*
Y313445D01*
X107382Y159941D02*
X122736D01*
Y140650D02*
Y159941D01*
X107382Y140650D02*
X122736D01*
X107382D02*
Y159941D01*
Y154941D02*
X112382Y159941D01*
X288721Y354015D02*
X312737D01*
X288721D02*
Y364605D01*
X312737D01*
Y354015D02*
Y364605D01*
X198622Y273031D02*
X228150D01*
X198622D02*
Y313583D01*
X228150D01*
Y273031D02*
Y313583D01*
M02*
